<?xml version="1.0" encoding="utf-8"?>
<!-- Generator: Adobe Illustrator 24.0.1, SVG Export Plug-In . SVG Version: 6.00 Build 0)  -->
<svg version="1.1" id="Layer_1" xmlns="http://www.w3.org/2000/svg" xmlns:xlink="http://www.w3.org/1999/xlink" x="0px" y="0px"
	 viewBox="0 0 120 50" style="enable-background:new 0 0 120 50;" xml:space="preserve">
<style type="text/css">
	.st0{fill:#217A96;}
	.st1{fill:#2B7F9B;}
	.st2{fill:#EE7B1A;}
	.st3{fill:url(#SVGID_1_);}
	.st4{fill:url(#SVGID_2_);}
	.st5{fill:url(#SVGID_3_);}
	.st6{fill:url(#SVGID_4_);}
	.st7{fill:url(#SVGID_5_);}
	.st8{fill:url(#SVGID_6_);}
	.st9{fill:url(#SVGID_7_);}
	.st10{fill:url(#SVGID_8_);}
	.st11{fill:url(#SVGID_9_);}
	.st12{fill:url(#SVGID_10_);}
	.st13{fill:url(#SVGID_11_);}
	.st14{fill:url(#SVGID_12_);}
	.st15{display:none;}
	.st16{display:inline;}
	.st17{fill:url(#SVGID_13_);}
	.st18{fill:url(#SVGID_14_);}
	.st19{fill:url(#SVGID_15_);}
	.st20{fill:url(#SVGID_16_);}
	.st21{fill:url(#SVGID_17_);}
	.st22{fill:url(#SVGID_18_);}
	.st23{fill:url(#SVGID_19_);}
	.st24{fill:url(#SVGID_20_);}
	.st25{fill:url(#SVGID_21_);}
	.st26{fill:url(#SVGID_22_);}
	.st27{fill:url(#SVGID_23_);}
	.st28{fill:url(#SVGID_24_);}
</style>
<g id="Name_2_">
	<g>
		<g>
			<path class="st0" d="M53.6,38.47c-0.22-0.32-0.31-0.35-0.53-0.35h-0.09v0.5c0,0.21,0,0.32-0.09,0.39
				c-0.05,0.04-0.14,0.09-0.25,0.09c-0.09,0-0.18-0.03-0.25-0.09c-0.09-0.08-0.09-0.19-0.09-0.4v-1.35c0-0.27,0-0.31,0.1-0.41
				c0.09-0.09,0.18-0.09,0.47-0.09h0.68c0.18,0,0.42,0,0.61,0.06c0.32,0.1,0.43,0.37,0.43,0.58c0,0.2-0.1,0.39-0.27,0.5
				c-0.14,0.08-0.28,0.12-0.38,0.14c0.17,0.08,0.27,0.16,0.4,0.31c0.12,0.14,0.27,0.39,0.27,0.52c0,0.13-0.14,0.23-0.31,0.23
				c-0.23,0-0.32-0.13-0.48-0.37L53.6,38.47z M52.98,37.73h0.37c0.25,0,0.55-0.01,0.55-0.27c0-0.26-0.28-0.26-0.53-0.26h-0.39V37.73
				z"/>
			<path class="st0" d="M55.68,37.65h0.94c0.18,0,0.27,0,0.33,0.06c0.03,0.03,0.08,0.08,0.08,0.16c0,0.06-0.03,0.12-0.08,0.16
				c-0.07,0.06-0.16,0.06-0.33,0.06h-0.94v0.54h1.06c0.19,0,0.28,0,0.35,0.06c0.04,0.03,0.08,0.09,0.08,0.17
				c0,0.06-0.03,0.12-0.08,0.17c-0.07,0.06-0.17,0.06-0.35,0.06h-1.16c-0.31,0-0.36,0-0.47-0.09C55,38.91,55,38.83,55,38.58v-1.31
				c0-0.27,0-0.31,0.1-0.41c0.1-0.09,0.18-0.09,0.47-0.09h1.13c0.18,0,0.27,0,0.34,0.06c0.04,0.04,0.08,0.09,0.08,0.16
				c0,0.06-0.03,0.12-0.08,0.16c-0.07,0.06-0.17,0.06-0.34,0.06h-1.03V37.65z"/>
			<path class="st0" d="M59.2,37.2c0-0.2,0-0.3,0.08-0.37c0.04-0.04,0.12-0.09,0.23-0.09c0.08,0,0.17,0.03,0.24,0.08
				c0.08,0.07,0.08,0.18,0.08,0.37v1.33c0,0.31,0,0.39-0.14,0.5c-0.05,0.04-0.13,0.09-0.27,0.09c-0.22,0-0.28-0.09-0.48-0.36
				l-0.79-1.06v0.96c0,0.2,0,0.3-0.08,0.37c-0.05,0.04-0.13,0.09-0.23,0.09c-0.08,0-0.17-0.03-0.23-0.08
				c-0.08-0.08-0.08-0.18-0.08-0.37v-1.34c0-0.3,0-0.39,0.14-0.49c0.04-0.04,0.13-0.09,0.27-0.09c0.21,0,0.28,0.09,0.47,0.35
				l0.8,1.09V37.2z"/>
			<path class="st0" d="M61,37.65h0.94c0.18,0,0.27,0,0.33,0.06c0.03,0.03,0.08,0.08,0.08,0.16c0,0.06-0.03,0.12-0.08,0.16
				c-0.07,0.06-0.16,0.06-0.33,0.06H61v0.54h1.06c0.19,0,0.28,0,0.35,0.06c0.04,0.03,0.08,0.09,0.08,0.17
				c0,0.06-0.03,0.12-0.08,0.17c-0.07,0.06-0.17,0.06-0.35,0.06h-1.16c-0.31,0-0.36,0-0.47-0.09c-0.1-0.08-0.1-0.16-0.1-0.41v-1.31
				c0-0.27,0-0.31,0.1-0.41c0.1-0.09,0.18-0.09,0.47-0.09h1.13c0.18,0,0.27,0,0.34,0.06c0.04,0.04,0.08,0.09,0.08,0.16
				c0,0.06-0.03,0.12-0.08,0.16c-0.07,0.06-0.17,0.06-0.34,0.06H61V37.65z"/>
			<path class="st0" d="M63.85,37.27c0.07-0.21,0.13-0.53,0.5-0.53c0.35,0,0.42,0.25,0.51,0.54l0.28,0.94l0.26-1.08
				c0.04-0.19,0.07-0.29,0.17-0.35c0.05-0.03,0.11-0.05,0.18-0.05c0.17,0,0.31,0.12,0.31,0.26c0,0.07,0,0.1-0.05,0.26l-0.36,1.33
				c-0.07,0.26-0.1,0.35-0.19,0.43c-0.06,0.06-0.16,0.1-0.28,0.1c-0.11,0-0.2-0.03-0.27-0.08c-0.1-0.07-0.14-0.19-0.22-0.43
				l-0.35-1.11L64,38.6c-0.08,0.24-0.12,0.34-0.2,0.42c-0.06,0.06-0.17,0.09-0.28,0.09c-0.1,0-0.2-0.03-0.28-0.09
				c-0.1-0.08-0.13-0.2-0.2-0.44l-0.35-1.32c-0.04-0.16-0.05-0.19-0.05-0.26c0-0.14,0.14-0.27,0.31-0.27c0.07,0,0.14,0.02,0.18,0.05
				c0.1,0.05,0.12,0.16,0.17,0.36l0.25,1.06L63.85,37.27z"/>
			<path class="st0" d="M66.94,38.63l-0.04,0.12c-0.09,0.23-0.14,0.37-0.38,0.37c-0.18,0-0.32-0.13-0.32-0.26
				c0-0.08,0.02-0.13,0.09-0.3l0.55-1.26c0.13-0.29,0.18-0.4,0.29-0.47c0.08-0.04,0.18-0.08,0.3-0.08c0.1,0,0.21,0.03,0.3,0.08
				c0.12,0.07,0.17,0.19,0.29,0.47l0.56,1.25c0.07,0.16,0.1,0.22,0.1,0.3c0,0.12-0.13,0.27-0.33,0.27c-0.23,0-0.29-0.14-0.38-0.38
				l-0.04-0.11H66.94z M67.76,38.19l-0.33-0.85l-0.33,0.85H67.76z"/>
			<path class="st0" d="M70.6,38.6c0.2,0,0.3,0,0.37,0.06c0.04,0.04,0.09,0.09,0.09,0.17c0,0.06-0.03,0.13-0.08,0.18
				c-0.07,0.06-0.18,0.06-0.37,0.06h-1c-0.31,0-0.36,0-0.47-0.09c-0.1-0.08-0.1-0.16-0.1-0.41v-1.35c0-0.21,0-0.32,0.09-0.39
				c0.05-0.04,0.13-0.09,0.25-0.09c0.09,0,0.18,0.03,0.25,0.09c0.09,0.08,0.09,0.19,0.09,0.4v1.37H70.6z"/>
			<path class="st1" d="M72.38,37.37c-0.18-0.24-0.2-0.3-0.2-0.38c0-0.14,0.14-0.24,0.31-0.24c0.18,0,0.25,0.1,0.43,0.35l0.36,0.53
				l0.36-0.53c0.17-0.25,0.24-0.35,0.44-0.35c0.19,0,0.3,0.13,0.3,0.24c0,0.09-0.03,0.14-0.2,0.38l-0.56,0.75v0.51
				c0,0.21,0,0.32-0.09,0.39c-0.05,0.04-0.13,0.09-0.24,0.09c-0.09,0-0.18-0.03-0.25-0.09c-0.09-0.08-0.09-0.19-0.09-0.4v-0.52
				L72.38,37.37z"/>
			<path class="st1" d="M75.84,36.74c0.94,0,1.34,0.51,1.34,1.18c0,0.66-0.4,1.19-1.32,1.19c-0.9,0-1.33-0.49-1.33-1.2
				C74.53,37.28,74.93,36.74,75.84,36.74z M75.39,38.46c0.07,0.08,0.21,0.19,0.46,0.19c0.24,0,0.43-0.1,0.54-0.26
				c0.09-0.14,0.11-0.33,0.11-0.47c0-0.13,0-0.71-0.64-0.71c-0.42,0-0.64,0.26-0.64,0.71C75.22,38.23,75.31,38.37,75.39,38.46z"/>
			<path class="st1" d="M78.22,38.1c0,0.21,0,0.54,0.49,0.54c0.47,0,0.48-0.32,0.48-0.53v-0.89c0-0.21,0-0.32,0.09-0.39
				c0.05-0.04,0.13-0.09,0.25-0.09c0.09,0,0.18,0.03,0.25,0.09c0.09,0.08,0.09,0.19,0.09,0.4v0.84c0,0.27-0.03,0.5-0.16,0.67
				c-0.22,0.3-0.58,0.38-0.95,0.38c-0.37,0-0.83-0.03-1.08-0.4c-0.14-0.21-0.14-0.55-0.14-0.64v-0.85c0-0.21,0-0.32,0.09-0.39
				c0.05-0.04,0.13-0.09,0.25-0.09c0.09,0,0.18,0.03,0.25,0.09c0.09,0.08,0.09,0.19,0.09,0.4V38.1z"/>
			<path class="st1" d="M80.58,37.26c-0.2,0-0.3,0-0.37-0.06c-0.04-0.03-0.09-0.09-0.09-0.17c0-0.06,0.03-0.13,0.08-0.18
				c0.07-0.07,0.18-0.06,0.37-0.06h1.47c0.2,0,0.3,0,0.37,0.06c0.04,0.03,0.09,0.09,0.09,0.17c0,0.06-0.03,0.13-0.08,0.18
				c-0.07,0.06-0.18,0.06-0.37,0.06h-0.4v1.37c0,0.21,0,0.32-0.09,0.39c-0.05,0.04-0.13,0.09-0.25,0.09c-0.09,0-0.18-0.03-0.25-0.09
				c-0.09-0.08-0.09-0.19-0.09-0.4v-1.37H80.58z"/>
			<path class="st1" d="M84.41,37.64v-0.4c0-0.21,0-0.32,0.09-0.4c0.05-0.04,0.13-0.09,0.25-0.09c0.09,0,0.18,0.03,0.25,0.09
				c0.09,0.08,0.09,0.19,0.09,0.4v1.39c0,0.21,0,0.32-0.09,0.39c-0.05,0.04-0.14,0.09-0.25,0.09c-0.09,0-0.18-0.03-0.25-0.09
				c-0.09-0.08-0.09-0.19-0.09-0.4v-0.52h-0.97v0.52c0,0.21,0,0.32-0.09,0.39c-0.05,0.04-0.13,0.09-0.25,0.09
				c-0.09,0-0.18-0.03-0.25-0.09c-0.09-0.08-0.09-0.19-0.09-0.4v-1.4c0-0.21,0-0.32,0.09-0.39c0.05-0.04,0.13-0.09,0.25-0.09
				c0.09,0,0.19,0.03,0.25,0.09c0.09,0.08,0.09,0.19,0.09,0.4v0.41H84.41z"/>
			<path class="st1" d="M87.83,36.74c0.94,0,1.34,0.51,1.34,1.18c0,0.66-0.4,1.19-1.32,1.19c-0.9,0-1.33-0.49-1.33-1.2
				C86.51,37.28,86.91,36.74,87.83,36.74z M87.38,38.46c0.07,0.08,0.21,0.19,0.46,0.19c0.24,0,0.43-0.1,0.54-0.26
				c0.09-0.14,0.11-0.33,0.11-0.47c0-0.13,0-0.71-0.64-0.71c-0.42,0-0.64,0.26-0.64,0.71C87.2,38.23,87.29,38.37,87.38,38.46z"/>
			<path class="st1" d="M90.82,38.47c-0.22-0.32-0.31-0.35-0.53-0.35H90.2v0.5c0,0.21,0,0.32-0.09,0.39
				c-0.05,0.04-0.14,0.09-0.25,0.09c-0.09,0-0.18-0.03-0.25-0.09c-0.09-0.08-0.09-0.19-0.09-0.4v-1.35c0-0.27,0-0.31,0.1-0.41
				c0.09-0.09,0.18-0.09,0.46-0.09h0.68c0.18,0,0.42,0,0.61,0.06c0.32,0.1,0.43,0.37,0.43,0.58c0,0.2-0.1,0.39-0.27,0.5
				c-0.14,0.08-0.28,0.12-0.38,0.14c0.17,0.08,0.27,0.16,0.4,0.31c0.12,0.14,0.27,0.39,0.27,0.52c0,0.13-0.14,0.23-0.31,0.23
				c-0.23,0-0.32-0.13-0.48-0.37L90.82,38.47z M90.2,37.73h0.37c0.25,0,0.55-0.01,0.55-0.27c0-0.26-0.28-0.26-0.53-0.26H90.2V37.73z
				"/>
			<path class="st1" d="M94.07,38.27h-0.21c-0.19,0-0.26-0.01-0.31-0.05c-0.06-0.04-0.1-0.11-0.1-0.16c0-0.06,0.04-0.14,0.11-0.18
				c0.06-0.03,0.15-0.04,0.2-0.04h0.51c0.26,0,0.42,0.05,0.42,0.39v0.29c0,0.15-0.01,0.23-0.17,0.33c-0.06,0.04-0.46,0.26-1.05,0.26
				c-0.97,0-1.36-0.57-1.36-1.19c0-0.33,0.11-0.65,0.39-0.88c0.24-0.2,0.57-0.3,1.03-0.3c0.85,0,1.06,0.45,1.06,0.6
				c0,0.11-0.1,0.26-0.32,0.26c-0.14,0-0.22-0.07-0.25-0.11c-0.14-0.18-0.16-0.22-0.3-0.27c-0.09-0.03-0.18-0.03-0.25-0.03
				c-0.18,0-0.4,0.04-0.53,0.22c-0.08,0.1-0.14,0.25-0.14,0.49c0,0.47,0.2,0.76,0.7,0.76c0.2,0,0.41-0.06,0.56-0.13V38.27z"/>
			<path class="st1" d="M95.72,38.63l-0.04,0.12c-0.09,0.23-0.14,0.37-0.38,0.37c-0.18,0-0.32-0.13-0.32-0.26
				c0-0.08,0.02-0.13,0.09-0.3l0.55-1.26c0.13-0.29,0.18-0.4,0.29-0.47c0.08-0.04,0.18-0.08,0.3-0.08c0.1,0,0.21,0.03,0.3,0.08
				c0.12,0.07,0.17,0.19,0.29,0.47l0.56,1.25c0.07,0.16,0.1,0.22,0.1,0.3c0,0.12-0.13,0.27-0.33,0.27c-0.23,0-0.29-0.14-0.38-0.38
				l-0.04-0.11H95.72z M96.54,38.19l-0.33-0.85l-0.33,0.85H96.54z"/>
			<path class="st1" d="M99.51,37.2c0-0.2,0-0.3,0.08-0.37c0.04-0.04,0.12-0.09,0.23-0.09c0.08,0,0.17,0.03,0.24,0.08
				c0.08,0.07,0.08,0.18,0.08,0.37v1.33c0,0.31,0,0.39-0.14,0.5c-0.05,0.04-0.13,0.09-0.27,0.09c-0.22,0-0.28-0.09-0.48-0.36
				l-0.79-1.06v0.96c0,0.2,0,0.3-0.08,0.37c-0.05,0.04-0.13,0.09-0.23,0.09c-0.08,0-0.17-0.03-0.23-0.08
				c-0.08-0.08-0.08-0.18-0.08-0.37v-1.34c0-0.3,0-0.39,0.14-0.49c0.04-0.04,0.13-0.09,0.27-0.09c0.21,0,0.28,0.09,0.47,0.35
				l0.81,1.09V37.2z"/>
			<path class="st1" d="M101.31,38.63c0,0.21,0,0.32-0.09,0.39c-0.05,0.04-0.13,0.09-0.25,0.09c-0.09,0-0.18-0.03-0.25-0.09
				c-0.09-0.08-0.09-0.19-0.09-0.4v-1.4c0-0.21,0-0.32,0.09-0.39c0.05-0.04,0.13-0.09,0.25-0.09c0.09,0,0.18,0.03,0.25,0.09
				c0.09,0.08,0.09,0.19,0.09,0.4V38.63z"/>
			<path class="st1" d="M102.09,37.22c-0.18,0-0.24,0-0.34-0.06c-0.04-0.02-0.08-0.09-0.08-0.16c0-0.24,0.26-0.22,0.42-0.22h1.26
				c0.27,0,0.34,0,0.42,0.08c0.07,0.06,0.1,0.13,0.1,0.2c0,0.1-0.04,0.14-0.21,0.31l-1.29,1.27h1.14c0.18,0,0.28,0,0.34,0.06
				c0.04,0.03,0.08,0.09,0.08,0.16c0,0.06-0.03,0.12-0.08,0.16c-0.07,0.06-0.16,0.06-0.34,0.06h-1.39c-0.31,0-0.38,0-0.49-0.09
				c-0.07-0.06-0.11-0.15-0.11-0.23c0-0.11,0.05-0.16,0.25-0.36l1.21-1.18H102.09z"/>
			<path class="st1" d="M104.78,38.63l-0.04,0.12c-0.09,0.23-0.14,0.37-0.38,0.37c-0.18,0-0.32-0.13-0.32-0.26
				c0-0.08,0.02-0.13,0.09-0.3l0.55-1.26c0.13-0.29,0.18-0.4,0.29-0.47c0.08-0.04,0.18-0.08,0.3-0.08c0.1,0,0.21,0.03,0.3,0.08
				c0.12,0.07,0.17,0.19,0.29,0.47l0.56,1.25c0.07,0.16,0.1,0.22,0.1,0.3c0,0.12-0.13,0.27-0.33,0.27c-0.23,0-0.29-0.14-0.38-0.38
				l-0.04-0.11H104.78z M105.61,38.19l-0.33-0.85l-0.33,0.85H105.61z"/>
			<path class="st1" d="M107.1,37.26c-0.2,0-0.3,0-0.37-0.06c-0.04-0.03-0.09-0.09-0.09-0.17c0-0.06,0.03-0.13,0.08-0.18
				c0.07-0.07,0.18-0.06,0.37-0.06h1.47c0.2,0,0.3,0,0.37,0.06c0.04,0.03,0.09,0.09,0.09,0.17c0,0.06-0.03,0.13-0.08,0.18
				c-0.07,0.06-0.18,0.06-0.37,0.06h-0.4v1.37c0,0.21,0,0.32-0.09,0.39c-0.05,0.04-0.13,0.09-0.25,0.09c-0.09,0-0.18-0.03-0.25-0.09
				c-0.09-0.08-0.09-0.19-0.09-0.4v-1.37H107.1z"/>
			<path class="st1" d="M109.96,38.63c0,0.21,0,0.32-0.09,0.39c-0.05,0.04-0.13,0.09-0.25,0.09c-0.09,0-0.18-0.03-0.25-0.09
				c-0.09-0.08-0.09-0.19-0.09-0.4v-1.4c0-0.21,0-0.32,0.09-0.39c0.05-0.04,0.13-0.09,0.25-0.09c0.09,0,0.18,0.03,0.25,0.09
				c0.09,0.08,0.09,0.19,0.09,0.4V38.63z"/>
			<path class="st1" d="M111.63,36.74c0.94,0,1.34,0.51,1.34,1.18c0,0.66-0.4,1.19-1.32,1.19c-0.9,0-1.33-0.49-1.33-1.2
				C110.31,37.28,110.71,36.74,111.63,36.74z M111.17,38.46c0.07,0.08,0.21,0.19,0.46,0.19c0.24,0,0.43-0.1,0.54-0.26
				c0.09-0.14,0.11-0.33,0.11-0.47c0-0.13,0-0.71-0.64-0.71c-0.42,0-0.64,0.26-0.64,0.71C111,38.23,111.09,38.37,111.17,38.46z"/>
			<path class="st1" d="M115.02,37.2c0-0.2,0-0.3,0.08-0.37c0.04-0.04,0.12-0.09,0.23-0.09c0.08,0,0.17,0.03,0.24,0.08
				c0.08,0.07,0.08,0.18,0.08,0.37v1.33c0,0.31,0,0.39-0.14,0.5c-0.05,0.04-0.13,0.09-0.27,0.09c-0.22,0-0.29-0.09-0.48-0.36
				l-0.79-1.06v0.96c0,0.2,0,0.3-0.08,0.37c-0.05,0.04-0.13,0.09-0.23,0.09c-0.08,0-0.17-0.03-0.23-0.08
				c-0.08-0.08-0.08-0.18-0.08-0.37v-1.34c0-0.3,0-0.39,0.14-0.49c0.04-0.04,0.13-0.09,0.27-0.09c0.21,0,0.28,0.09,0.47,0.35
				l0.81,1.09V37.2z"/>
		</g>
	</g>
	<g>
		<path class="st2" d="M53.87,35.9h-0.72v-1.36c0-0.24,0.08-0.44,0.25-0.6c0.17-0.16,0.37-0.24,0.61-0.24h0.12
			c0.07-0.18,0.19-0.33,0.36-0.44c0.17-0.11,0.36-0.17,0.56-0.17c0.28,0,0.51,0.1,0.71,0.29c0.2,0.19,0.3,0.42,0.3,0.69
			s-0.1,0.5-0.29,0.69c-0.2,0.19-0.43,0.28-0.71,0.28c-0.21,0-0.41-0.06-0.58-0.18s-0.29-0.27-0.36-0.46h-0.1
			c-0.04,0-0.07,0.01-0.1,0.04c-0.03,0.03-0.04,0.06-0.04,0.1V35.9z M54.85,34.26c0.06,0.05,0.12,0.08,0.2,0.08s0.15-0.03,0.2-0.08
			c0.06-0.05,0.08-0.12,0.08-0.2s-0.03-0.14-0.08-0.2s-0.12-0.08-0.2-0.08s-0.14,0.03-0.2,0.08c-0.06,0.05-0.08,0.12-0.08,0.2
			S54.79,34.21,54.85,34.26z"/>
		<path class="st2" d="M57.6,35.04h-1.22v-0.7h1.22c0.05,0,0.1-0.02,0.13-0.05c0.03-0.03,0.05-0.08,0.05-0.14V32h0.72v2.15
			c0,0.06,0.02,0.1,0.05,0.14c0.03,0.04,0.07,0.05,0.13,0.05h0.12v0.7h-0.12c-0.22,0-0.4-0.07-0.53-0.21
			C58,34.97,57.82,35.04,57.6,35.04z M57.19,34.18h-0.72V32.2h0.72V34.18z"/>
		<path class="st2" d="M58.81,35.04h-0.1v-0.7h0.1c0.05,0,0.1-0.02,0.13-0.05c0.03-0.03,0.05-0.08,0.05-0.14v-1.06h0.72v1.05
			c0,0.06,0.02,0.11,0.05,0.14c0.03,0.04,0.08,0.05,0.14,0.05c0.05,0,0.1-0.02,0.13-0.05c0.04-0.04,0.05-0.08,0.05-0.14v-1.05h0.72
			v1.05c0,0.06,0.02,0.11,0.05,0.14c0.04,0.04,0.08,0.05,0.13,0.05s0.1-0.02,0.13-0.05c0.04-0.04,0.05-0.08,0.05-0.14v-1.05h0.72
			v1.06c0,0.06,0.02,0.1,0.05,0.14c0.03,0.04,0.07,0.05,0.13,0.05h0.1v0.7h-0.1c-0.22,0-0.4-0.07-0.54-0.21
			c-0.14,0.14-0.32,0.21-0.54,0.21c-0.23,0-0.41-0.07-0.55-0.22c-0.14,0.15-0.32,0.22-0.55,0.22c-0.23,0-0.41-0.07-0.55-0.21
			C59.21,34.97,59.03,35.04,58.81,35.04z"/>
		<path class="st2" d="M62.21,35.04h-0.12v-0.7h0.12c0.05,0,0.1-0.02,0.13-0.05c0.03-0.03,0.05-0.08,0.05-0.14V32h0.72v2.15
			c0,0.25-0.08,0.47-0.25,0.64C62.68,34.96,62.47,35.04,62.21,35.04z"/>
		<path class="st2" d="M64.32,35.04H63.6V32h0.72V35.04z"/>
		<path class="st2" d="M65.67,35.97c-0.16,0-0.33-0.04-0.49-0.11c-0.17-0.07-0.29-0.17-0.39-0.29l0.5-0.46
			c0.1,0.11,0.23,0.16,0.38,0.16c0.09,0,0.16-0.02,0.22-0.07s0.09-0.1,0.09-0.16H65.7c-0.28,0-0.52-0.09-0.72-0.28
			c-0.2-0.19-0.29-0.42-0.29-0.69c0-0.27,0.1-0.5,0.29-0.69c0.2-0.19,0.43-0.29,0.71-0.29c0.3,0,0.54,0.1,0.73,0.29
			s0.28,0.45,0.28,0.76v0.78c0,0.31-0.09,0.56-0.28,0.75C66.23,35.87,65.98,35.97,65.67,35.97z M65.7,34.34h0.27v-0.27
			c0-0.08-0.03-0.15-0.08-0.21s-0.12-0.08-0.21-0.08c-0.08,0-0.14,0.03-0.2,0.08s-0.08,0.12-0.08,0.2c0,0.08,0.03,0.15,0.08,0.2
			C65.54,34.32,65.61,34.34,65.7,34.34z"/>
		<path class="st2" d="M69.02,35.04c-0.28,0-0.52-0.09-0.71-0.28c-0.2-0.19-0.29-0.42-0.29-0.69s0.1-0.5,0.29-0.69
			c0.2-0.19,0.43-0.29,0.71-0.29h1v1.06c0,0.06,0.01,0.1,0.05,0.14c0.03,0.04,0.07,0.05,0.13,0.05h0.14v0.7h-0.14
			c-0.24,0-0.42-0.08-0.56-0.23C69.47,34.96,69.27,35.04,69.02,35.04z M68.97,32.86c-0.07,0.07-0.16,0.11-0.26,0.11
			s-0.19-0.04-0.26-0.11s-0.11-0.15-0.11-0.25c0-0.1,0.04-0.18,0.11-0.25s0.16-0.1,0.26-0.1s0.19,0.03,0.26,0.1s0.11,0.16,0.11,0.25
			C69.08,32.7,69.04,32.79,68.97,32.86z M68.82,34.26c0.06,0.05,0.12,0.08,0.2,0.08c0.08,0,0.14-0.03,0.19-0.08
			c0.05-0.05,0.08-0.12,0.08-0.2v-0.28h-0.27c-0.08,0-0.14,0.03-0.2,0.08s-0.08,0.12-0.08,0.2S68.77,34.21,68.82,34.26z
			 M69.78,32.86c-0.07,0.07-0.16,0.11-0.26,0.11s-0.19-0.03-0.26-0.1c-0.07-0.07-0.11-0.15-0.11-0.25s0.04-0.18,0.11-0.25
			s0.16-0.1,0.26-0.1s0.19,0.03,0.26,0.1c0.07,0.07,0.11,0.16,0.11,0.25C69.89,32.7,69.85,32.79,69.78,32.86z"/>
		<path class="st2" d="M70.62,35.04h-0.37v-0.7h0.37c0.05,0,0.09-0.02,0.12-0.05c0.03-0.03,0.05-0.08,0.05-0.14V33.1l0.72,0v1.06
			c0,0.06,0.02,0.1,0.05,0.14c0.03,0.04,0.07,0.05,0.13,0.05h0.38v0.7h-0.38c-0.22,0-0.4-0.07-0.53-0.21
			C71.02,34.97,70.84,35.04,70.62,35.04z M71.02,35.84c-0.07,0.07-0.16,0.11-0.26,0.11c-0.1,0-0.19-0.03-0.26-0.1
			c-0.07-0.07-0.11-0.15-0.11-0.25s0.04-0.18,0.11-0.25c0.07-0.07,0.16-0.1,0.26-0.1c0.1,0,0.19,0.04,0.26,0.1
			c0.07,0.07,0.11,0.16,0.11,0.25C71.12,35.69,71.09,35.77,71.02,35.84z M71.83,35.84c-0.07,0.07-0.16,0.11-0.26,0.11
			c-0.1,0-0.19-0.03-0.26-0.1c-0.07-0.07-0.11-0.15-0.11-0.25s0.04-0.18,0.11-0.25c0.07-0.07,0.16-0.1,0.26-0.1
			c0.1,0,0.19,0.04,0.26,0.1c0.07,0.07,0.11,0.16,0.11,0.25C71.93,35.69,71.9,35.77,71.83,35.84z"/>
		<path class="st2" d="M73.21,35.04h-1.22v-0.7h0.3c-0.05-0.08-0.08-0.17-0.08-0.27c0-0.27,0.1-0.5,0.3-0.69
			c0.2-0.19,0.43-0.29,0.71-0.29s0.51,0.1,0.71,0.29c0.2,0.19,0.3,0.42,0.3,0.69v0.13c0,0.04,0.01,0.07,0.04,0.1
			c0.03,0.03,0.06,0.04,0.1,0.04h0.12v0.7h-0.12c-0.22,0-0.39-0.08-0.5-0.23C73.67,34.97,73.45,35.04,73.21,35.04z M73.01,34.26
			c0.06,0.05,0.12,0.08,0.2,0.08s0.14-0.03,0.2-0.08c0.06-0.05,0.08-0.12,0.08-0.2s-0.03-0.14-0.08-0.2
			c-0.06-0.05-0.12-0.08-0.2-0.08s-0.14,0.03-0.2,0.08c-0.06,0.05-0.08,0.12-0.08,0.2S72.96,34.21,73.01,34.26z"/>
		<path class="st2" d="M74.53,35.04h-0.14v-0.7h0.14c0.05,0,0.1-0.02,0.13-0.05c0.03-0.03,0.05-0.08,0.05-0.14v-1.06h0.72v1.06
			c0,0.06,0.02,0.1,0.05,0.14c0.03,0.04,0.08,0.05,0.13,0.05h0.13v0.7H75.6c-0.22,0-0.4-0.07-0.54-0.21
			C74.93,34.97,74.75,35.04,74.53,35.04z M75.34,32.85c-0.08,0.07-0.17,0.11-0.27,0.11c-0.11,0-0.2-0.04-0.27-0.11
			c-0.07-0.07-0.11-0.16-0.11-0.26c0-0.1,0.04-0.19,0.11-0.27c0.08-0.07,0.17-0.11,0.27-0.11c0.11,0,0.2,0.04,0.27,0.11
			c0.08,0.07,0.11,0.16,0.11,0.27C75.46,32.69,75.42,32.78,75.34,32.85z"/>
		<path class="st2" d="M76.03,35.04h-0.37v-0.7h0.37c0.05,0,0.1-0.02,0.13-0.05c0.03-0.03,0.05-0.08,0.05-0.14v-1.06h0.72v1.06
			c0,0.06,0.02,0.1,0.05,0.14c0.03,0.04,0.08,0.05,0.13,0.05h0.37v0.7H77.1c-0.22,0-0.4-0.07-0.53-0.21
			C76.43,34.97,76.25,35.04,76.03,35.04z M76.42,32.86c-0.07,0.07-0.16,0.11-0.26,0.11c-0.1,0-0.19-0.04-0.26-0.11
			s-0.11-0.15-0.11-0.25c0-0.1,0.04-0.18,0.11-0.25s0.16-0.1,0.26-0.1c0.1,0,0.19,0.03,0.26,0.1s0.11,0.16,0.11,0.25
			C76.53,32.7,76.5,32.79,76.42,32.86z M77.24,32.86c-0.07,0.07-0.16,0.11-0.26,0.11c-0.1,0-0.19-0.03-0.26-0.1
			c-0.07-0.07-0.11-0.15-0.11-0.25s0.04-0.18,0.11-0.25s0.16-0.1,0.26-0.1c0.1,0,0.19,0.03,0.26,0.1c0.07,0.07,0.11,0.16,0.11,0.25
			C77.34,32.7,77.31,32.79,77.24,32.86z"/>
		<path class="st2" d="M77.53,35.04H77.4v-0.7h0.14c0.05,0,0.1-0.02,0.13-0.05c0.03-0.03,0.05-0.08,0.05-0.14V32h0.72v2.15
			c0,0.06,0.02,0.1,0.05,0.14c0.03,0.04,0.08,0.05,0.13,0.05h0.13v0.7h-0.13c-0.22,0-0.4-0.07-0.54-0.21
			C77.93,34.97,77.75,35.04,77.53,35.04z"/>
		<path class="st2" d="M78.78,35.04h-0.12v-0.7h0.12c0.05,0,0.1-0.02,0.13-0.05c0.03-0.03,0.05-0.08,0.05-0.14V32h0.72v2.15
			c0,0.25-0.08,0.47-0.25,0.64C79.25,34.96,79.04,35.04,78.78,35.04z"/>
		<path class="st2" d="M83.1,35.04h-2v-0.7h1.04v-0.26c0-0.08-0.03-0.15-0.08-0.21s-0.12-0.08-0.2-0.08c-0.09,0-0.18,0.03-0.27,0.08
			l-0.28-0.62c0.17-0.1,0.35-0.16,0.55-0.16c0.28,0,0.52,0.1,0.71,0.29c0.2,0.19,0.29,0.42,0.29,0.7v0.26h0.23V35.04z"/>
		<path class="st2" d="M83.36,35.04h-0.34v-0.7h0.34c0.05,0,0.1-0.02,0.13-0.05c0.03-0.03,0.05-0.08,0.05-0.14v-1.06h0.72v1.06
			c0,0.25-0.08,0.47-0.26,0.64S83.62,35.04,83.36,35.04z M83.49,35.95c-0.1,0-0.19-0.03-0.26-0.1c-0.07-0.07-0.11-0.15-0.11-0.25
			s0.04-0.18,0.11-0.25c0.07-0.07,0.16-0.1,0.26-0.1c0.1,0,0.19,0.04,0.26,0.1c0.07,0.07,0.11,0.16,0.11,0.25
			c0,0.1-0.04,0.18-0.11,0.25C83.68,35.91,83.59,35.95,83.49,35.95z M84.31,35.95c-0.1,0-0.19-0.03-0.26-0.1
			c-0.07-0.07-0.11-0.15-0.11-0.25s0.04-0.18,0.11-0.25c0.07-0.07,0.16-0.1,0.26-0.1c0.1,0,0.19,0.04,0.26,0.1
			c0.07,0.07,0.11,0.16,0.11,0.25c0,0.1-0.04,0.18-0.11,0.25C84.49,35.91,84.4,35.95,84.31,35.95z"/>
		<path class="st2" d="M86.68,35.04h-2v-0.7h1.04v-0.26c0-0.08-0.03-0.15-0.08-0.21s-0.12-0.08-0.2-0.08
			c-0.09,0-0.18,0.03-0.27,0.08l-0.28-0.62c0.17-0.1,0.35-0.16,0.55-0.16c0.28,0,0.52,0.1,0.71,0.29c0.2,0.19,0.29,0.42,0.29,0.7
			v0.26h0.23V35.04z"/>
		<path class="st2" d="M89.31,35.04H86.6v-0.7h1.72v-0.08c0-0.15-0.05-0.27-0.15-0.35c-0.09-0.08-0.23-0.12-0.41-0.12h-0.9v-0.7
			h0.95c0.34,0,0.63,0.11,0.87,0.32c0.24,0.21,0.36,0.49,0.36,0.81v0.12h0.26L89.31,35.04z M87.92,36.01c-0.11,0-0.2-0.04-0.27-0.11
			c-0.08-0.07-0.11-0.16-0.11-0.26c0-0.1,0.04-0.19,0.11-0.26c0.08-0.07,0.17-0.11,0.27-0.11c0.1,0,0.2,0.04,0.27,0.11
			c0.08,0.07,0.11,0.16,0.11,0.26c0,0.1-0.04,0.19-0.11,0.26C88.12,35.97,88.03,36.01,87.92,36.01z"/>
		<path class="st2" d="M89.59,35.04h-0.37v-0.7h0.37c0.05,0,0.1-0.02,0.13-0.05c0.03-0.03,0.05-0.08,0.05-0.14v-1.06h0.72v1.06
			c0,0.06,0.02,0.1,0.05,0.14c0.03,0.04,0.08,0.05,0.13,0.05h0.37v0.7h-0.37c-0.22,0-0.4-0.07-0.53-0.21
			C89.98,34.97,89.8,35.04,89.59,35.04z M89.98,32.86c-0.07,0.07-0.16,0.11-0.26,0.11c-0.1,0-0.19-0.04-0.26-0.11
			s-0.11-0.15-0.11-0.25c0-0.1,0.04-0.18,0.11-0.25s0.16-0.1,0.26-0.1c0.1,0,0.19,0.03,0.26,0.1s0.11,0.16,0.11,0.25
			C90.09,32.7,90.05,32.79,89.98,32.86z M90.79,32.86c-0.07,0.07-0.16,0.11-0.26,0.11c-0.1,0-0.19-0.03-0.26-0.1
			c-0.07-0.07-0.11-0.15-0.11-0.25s0.04-0.18,0.11-0.25s0.16-0.1,0.26-0.1c0.1,0,0.19,0.03,0.26,0.1c0.07,0.07,0.11,0.16,0.11,0.25
			C90.9,32.7,90.86,32.79,90.79,32.86z"/>
		<path class="st2" d="M91.07,35.04h-0.12v-0.7h0.12c0.05,0,0.1-0.02,0.13-0.05c0.03-0.03,0.05-0.08,0.05-0.14V32h0.72v2.15
			c0,0.25-0.08,0.47-0.25,0.64C91.54,34.96,91.33,35.04,91.07,35.04z"/>
		<path class="st2" d="M93.18,35.04h-0.72V32h0.72V35.04z"/>
		<path class="st2" d="M96.5,35.04h-0.63c-0.38,0-0.68-0.11-0.92-0.33c-0.24-0.22-0.35-0.5-0.35-0.83v-0.39h0.72v0.39
			c0,0.14,0.05,0.26,0.15,0.34c0.1,0.08,0.23,0.13,0.4,0.13h0.63c0.21,0,0.32-0.11,0.32-0.33v-0.92h0.72v0.92
			c0,0.31-0.1,0.55-0.29,0.74S96.81,35.04,96.5,35.04z M96.34,35.86c-0.08,0.07-0.17,0.11-0.27,0.11s-0.2-0.04-0.27-0.11
			c-0.07-0.07-0.11-0.16-0.11-0.26c0-0.1,0.04-0.19,0.11-0.27c0.08-0.07,0.17-0.11,0.27-0.11s0.2,0.04,0.27,0.11
			c0.08,0.07,0.11,0.16,0.11,0.27C96.46,35.7,96.42,35.79,96.34,35.86z"/>
		<path class="st2" d="M98.94,35.04h-0.1c-0.26,0-0.47-0.08-0.64-0.25s-0.25-0.38-0.25-0.64V32h0.72v2.15c0,0.06,0.02,0.1,0.05,0.14
			c0.03,0.04,0.07,0.05,0.12,0.05h0.1V35.04z"/>
		<path class="st2" d="M98.98,35.04h-0.12v-0.7h0.12c0.05,0,0.1-0.02,0.13-0.05c0.03-0.03,0.05-0.08,0.05-0.14v-1.06h0.72v1.06
			c0,0.06,0.02,0.1,0.05,0.14c0.03,0.04,0.07,0.05,0.13,0.05h0.12v0.7h-0.12c-0.22,0-0.4-0.07-0.53-0.21
			C99.38,34.97,99.2,35.04,98.98,35.04z M99.77,35.87c-0.08,0.07-0.17,0.11-0.27,0.11c-0.11,0-0.2-0.04-0.27-0.11
			c-0.07-0.07-0.11-0.16-0.11-0.26c0-0.1,0.04-0.19,0.11-0.27c0.08-0.07,0.17-0.11,0.27-0.11c0.11,0,0.2,0.04,0.27,0.11
			c0.08,0.07,0.11,0.16,0.11,0.27C99.89,35.71,99.85,35.8,99.77,35.87z"/>
		<path class="st2" d="M100.23,35.04h-0.14v-0.7h0.14c0.05,0,0.1-0.02,0.13-0.05c0.03-0.03,0.05-0.08,0.05-0.14v-1.06h0.72v1.05
			c0,0.06,0.02,0.11,0.05,0.14c0.04,0.04,0.08,0.05,0.13,0.05c0.06,0,0.1-0.02,0.14-0.05c0.03-0.04,0.05-0.08,0.05-0.14v-1.05h0.72
			v1.05c0,0.06,0.02,0.11,0.05,0.14c0.03,0.04,0.08,0.05,0.14,0.05c0.05,0,0.1-0.02,0.13-0.05c0.04-0.04,0.05-0.08,0.05-0.14v-1.05
			h0.72v1.05c0,0.26-0.09,0.47-0.26,0.64c-0.17,0.17-0.39,0.25-0.64,0.25c-0.23,0-0.41-0.07-0.55-0.22
			c-0.14,0.15-0.33,0.22-0.55,0.22c-0.22,0-0.4-0.07-0.54-0.21C100.63,34.97,100.45,35.04,100.23,35.04z M101.66,32.86
			c-0.07,0.07-0.15,0.1-0.25,0.1c-0.1,0-0.18-0.03-0.25-0.1c-0.07-0.07-0.1-0.15-0.1-0.25c0-0.1,0.04-0.18,0.1-0.25
			c0.07-0.07,0.15-0.1,0.25-0.1c0.1,0,0.18,0.03,0.25,0.1c0.07,0.07,0.1,0.15,0.1,0.25C101.76,32.71,101.73,32.79,101.66,32.86z
			 M101.82,32.31c-0.09,0-0.17-0.03-0.23-0.09c-0.06-0.06-0.1-0.13-0.1-0.22c0-0.09,0.03-0.16,0.1-0.22
			c0.06-0.06,0.14-0.09,0.23-0.09c0.09,0,0.17,0.03,0.23,0.09c0.06,0.06,0.09,0.14,0.09,0.22c0,0.09-0.03,0.16-0.09,0.22
			C101.99,32.28,101.91,32.31,101.82,32.31z M102.48,32.86c-0.07,0.07-0.15,0.1-0.25,0.1c-0.1,0-0.18-0.03-0.25-0.1
			c-0.07-0.07-0.1-0.15-0.1-0.25c0-0.1,0.04-0.18,0.1-0.25c0.07-0.07,0.15-0.1,0.25-0.1c0.1,0,0.18,0.03,0.25,0.1
			c0.07,0.07,0.1,0.15,0.1,0.25C102.59,32.71,102.55,32.79,102.48,32.86z"/>
		<path class="st2" d="M105.68,35.04c-0.28,0-0.52-0.09-0.71-0.28c-0.2-0.19-0.29-0.42-0.29-0.69s0.1-0.5,0.29-0.69
			c0.2-0.19,0.43-0.29,0.71-0.29h1v1.06c0,0.06,0.01,0.1,0.05,0.14c0.03,0.04,0.07,0.05,0.13,0.05h0.14v0.7h-0.14
			c-0.24,0-0.42-0.08-0.56-0.23C106.12,34.96,105.92,35.04,105.68,35.04z M105.63,32.86c-0.07,0.07-0.16,0.11-0.26,0.11
			s-0.19-0.04-0.26-0.11S105,32.7,105,32.61c0-0.1,0.04-0.18,0.11-0.25s0.16-0.1,0.26-0.1s0.19,0.03,0.26,0.1s0.11,0.16,0.11,0.25
			C105.74,32.7,105.7,32.79,105.63,32.86z M105.48,34.26c0.06,0.05,0.12,0.08,0.2,0.08c0.08,0,0.14-0.03,0.19-0.08
			c0.05-0.05,0.08-0.12,0.08-0.2v-0.28h-0.27c-0.08,0-0.14,0.03-0.2,0.08s-0.08,0.12-0.08,0.2S105.42,34.21,105.48,34.26z
			 M106.44,32.86c-0.07,0.07-0.16,0.11-0.26,0.11s-0.19-0.03-0.26-0.1c-0.07-0.07-0.11-0.15-0.11-0.25s0.04-0.18,0.11-0.25
			s0.16-0.1,0.26-0.1s0.19,0.03,0.26,0.1c0.07,0.07,0.11,0.16,0.11,0.25C106.54,32.7,106.51,32.79,106.44,32.86z"/>
		<path class="st2" d="M108.13,35.04h-1.22v-0.7h0.3c-0.05-0.08-0.08-0.17-0.08-0.27c0-0.27,0.1-0.5,0.3-0.69
			c0.2-0.19,0.43-0.29,0.71-0.29s0.51,0.1,0.71,0.29c0.2,0.19,0.3,0.42,0.3,0.69v0.13c0,0.04,0.01,0.07,0.04,0.1
			c0.03,0.03,0.06,0.04,0.1,0.04h0.12v0.7h-0.12c-0.22,0-0.39-0.08-0.5-0.23C108.58,34.97,108.37,35.04,108.13,35.04z M107.93,34.26
			c0.06,0.05,0.12,0.08,0.2,0.08s0.14-0.03,0.2-0.08c0.06-0.05,0.08-0.12,0.08-0.2s-0.03-0.14-0.08-0.2
			c-0.06-0.05-0.12-0.08-0.2-0.08s-0.14,0.03-0.2,0.08c-0.06,0.05-0.08,0.12-0.08,0.2S107.87,34.21,107.93,34.26z"/>
		<path class="st2" d="M111.29,35.04h-1.98v-0.7h0.28V32h0.72v1.4c0.28-0.21,0.57-0.31,0.88-0.31c0.29,0,0.54,0.1,0.73,0.29
			c0.19,0.19,0.28,0.44,0.28,0.74v0.05c0,0.11,0.05,0.17,0.14,0.17h0.12v0.7h-0.12c-0.2,0-0.37-0.07-0.5-0.21
			C111.69,34.97,111.51,35.04,111.29,35.04z M110.31,34.17v0.17h0.98c0.06,0,0.1-0.01,0.13-0.04c0.03-0.03,0.05-0.07,0.05-0.13
			v-0.04c0-0.11-0.03-0.19-0.1-0.26c-0.06-0.06-0.16-0.09-0.28-0.09c-0.11,0-0.24,0.04-0.38,0.1
			C110.57,33.96,110.44,34.06,110.31,34.17z M111.18,32.85c-0.08,0.07-0.17,0.11-0.27,0.11c-0.11,0-0.2-0.04-0.27-0.11
			c-0.08-0.07-0.11-0.16-0.11-0.26c0-0.1,0.04-0.19,0.11-0.27c0.08-0.07,0.17-0.11,0.27-0.11c0.11,0,0.2,0.04,0.27,0.11
			c0.07,0.07,0.11,0.16,0.11,0.27C111.29,32.69,111.25,32.78,111.18,32.85z"/>
		<path class="st2" d="M112.51,35.04h-0.14v-0.7h0.14c0.05,0,0.1-0.02,0.13-0.05c0.03-0.03,0.05-0.08,0.05-0.14v-1.06h0.72v1.06
			c0,0.06,0.02,0.1,0.05,0.14c0.03,0.04,0.08,0.05,0.13,0.05h0.13v0.7h-0.13c-0.22,0-0.4-0.07-0.54-0.21
			C112.91,34.97,112.73,35.04,112.51,35.04z M113.32,32.85c-0.08,0.07-0.17,0.11-0.27,0.11c-0.11,0-0.2-0.04-0.27-0.11
			c-0.07-0.07-0.11-0.16-0.11-0.26c0-0.1,0.04-0.19,0.11-0.27c0.08-0.07,0.17-0.11,0.27-0.11c0.11,0,0.2,0.04,0.27,0.11
			c0.08,0.07,0.11,0.16,0.11,0.27C113.44,32.69,113.4,32.78,113.32,32.85z"/>
		<path class="st2" d="M114.86,35.04h-1.22v-0.7h0.3c-0.05-0.08-0.08-0.17-0.08-0.27c0-0.27,0.1-0.5,0.3-0.69
			c0.2-0.19,0.43-0.29,0.71-0.29s0.51,0.1,0.71,0.29c0.2,0.19,0.3,0.42,0.3,0.69s-0.1,0.5-0.29,0.69
			C115.37,34.95,115.14,35.04,114.86,35.04z M114.66,34.26c0.06,0.05,0.12,0.08,0.2,0.08s0.14-0.03,0.2-0.08
			c0.06-0.05,0.08-0.12,0.08-0.2s-0.03-0.14-0.08-0.2c-0.06-0.05-0.12-0.08-0.2-0.08s-0.14,0.03-0.2,0.08
			c-0.06,0.05-0.08,0.12-0.08,0.2S114.6,34.21,114.66,34.26z"/>
	</g>
	<g>
		<g>
			<path class="st1" d="M53.12,40.79h0.72c0.18,0,0.27,0,0.33,0.05c0.03,0.03,0.08,0.08,0.08,0.16c0,0.06-0.03,0.12-0.08,0.16
				c-0.06,0.06-0.16,0.06-0.33,0.06h-0.72v0.52c0,0.21,0,0.32-0.09,0.4c-0.05,0.05-0.14,0.09-0.25,0.09c-0.09,0-0.18-0.03-0.25-0.09
				c-0.09-0.08-0.09-0.19-0.09-0.4v-1.37c0-0.27,0-0.32,0.1-0.41c0.09-0.09,0.18-0.09,0.48-0.09h0.99c0.19,0,0.28,0,0.35,0.06
				c0.04,0.03,0.08,0.09,0.08,0.17c0,0.06-0.03,0.12-0.08,0.16c-0.07,0.06-0.17,0.06-0.35,0.06h-0.88V40.79z"/>
			<path class="st1" d="M56.03,39.82c0.95,0,1.36,0.52,1.36,1.2c0,0.67-0.4,1.21-1.34,1.21c-0.91,0-1.35-0.5-1.35-1.21
				C54.7,40.37,55.11,39.82,56.03,39.82z M55.57,41.57c0.07,0.08,0.22,0.19,0.47,0.19c0.24,0,0.44-0.1,0.54-0.26
				c0.09-0.14,0.11-0.33,0.11-0.48c0-0.13,0-0.72-0.65-0.72c-0.42,0-0.65,0.26-0.65,0.72C55.39,41.33,55.49,41.47,55.57,41.57z"/>
			<path class="st1" d="M59.15,41.58c-0.22-0.33-0.32-0.35-0.54-0.35h-0.09v0.5c0,0.21,0,0.32-0.09,0.4
				c-0.05,0.05-0.14,0.09-0.25,0.09c-0.09,0-0.19-0.03-0.26-0.09c-0.09-0.08-0.09-0.19-0.09-0.4v-1.37c0-0.27,0-0.32,0.1-0.41
				c0.09-0.09,0.18-0.09,0.47-0.09h0.69c0.18,0,0.42,0,0.62,0.07c0.33,0.1,0.44,0.37,0.44,0.58c0,0.2-0.1,0.4-0.27,0.5
				c-0.14,0.08-0.28,0.12-0.39,0.14c0.17,0.08,0.27,0.16,0.4,0.32c0.12,0.15,0.27,0.4,0.27,0.53c0,0.14-0.14,0.24-0.32,0.24
				c-0.23,0-0.32-0.13-0.49-0.37L59.15,41.58z M58.52,40.82h0.38c0.25,0,0.56-0.01,0.56-0.27c0-0.26-0.29-0.26-0.54-0.26h-0.39
				V40.82z"/>
			<path class="st1" d="M61.79,40.36c0-0.27,0-0.32,0.1-0.41c0.1-0.09,0.18-0.09,0.48-0.09h0.54c0.27,0,0.53,0.02,0.78,0.18
				c0.34,0.22,0.47,0.57,0.47,0.98c0,0.21-0.01,0.65-0.43,0.97c-0.19,0.14-0.5,0.21-0.8,0.21h-0.55c-0.31,0-0.42,0-0.53-0.14
				c-0.05-0.07-0.05-0.17-0.05-0.36V40.36z M62.48,41.73h0.3c0.32,0,0.68-0.01,0.68-0.7c0-0.7-0.36-0.71-0.76-0.71h-0.22V41.73z"/>
			<path class="st1" d="M65.29,40.75h0.95c0.18,0,0.27,0,0.34,0.06c0.03,0.03,0.08,0.08,0.08,0.16c0,0.06-0.03,0.12-0.08,0.16
				c-0.07,0.06-0.16,0.06-0.34,0.06h-0.95v0.54h1.07c0.19,0,0.29,0,0.36,0.06c0.04,0.03,0.09,0.09,0.09,0.17
				c0,0.06-0.03,0.12-0.08,0.17c-0.07,0.06-0.17,0.06-0.36,0.06h-1.18c-0.31,0-0.37,0-0.48-0.09c-0.1-0.08-0.1-0.16-0.1-0.41v-1.33
				c0-0.27,0-0.32,0.1-0.41c0.1-0.09,0.18-0.09,0.48-0.09h1.15c0.18,0,0.28,0,0.35,0.06c0.04,0.04,0.08,0.09,0.08,0.16
				c0,0.06-0.03,0.12-0.08,0.17c-0.07,0.06-0.17,0.06-0.35,0.06h-1.04V40.75z"/>
			<path class="st1" d="M68.81,40.2c0.09-0.24,0.14-0.38,0.38-0.38c0.18,0,0.33,0.13,0.33,0.26c0,0.08-0.02,0.13-0.09,0.3
				l-0.54,1.28c-0.12,0.29-0.17,0.41-0.29,0.48c-0.09,0.06-0.19,0.09-0.3,0.09c-0.14,0-0.3-0.06-0.37-0.14
				c-0.08-0.09-0.12-0.16-0.23-0.42l-0.53-1.27c-0.07-0.16-0.1-0.22-0.1-0.31c0-0.12,0.13-0.27,0.34-0.27c0.24,0,0.3,0.14,0.39,0.39
				l0.51,1.35L68.81,40.2z"/>
			<path class="st1" d="M70.6,40.75h0.95c0.18,0,0.27,0,0.34,0.06c0.03,0.03,0.08,0.08,0.08,0.16c0,0.06-0.03,0.12-0.08,0.16
				c-0.07,0.06-0.16,0.06-0.34,0.06H70.6v0.54h1.07c0.19,0,0.29,0,0.36,0.06c0.04,0.03,0.09,0.09,0.09,0.17
				c0,0.06-0.03,0.12-0.08,0.17c-0.07,0.06-0.17,0.06-0.36,0.06h-1.18c-0.31,0-0.37,0-0.48-0.09c-0.1-0.08-0.1-0.16-0.1-0.41v-1.33
				c0-0.27,0-0.32,0.1-0.41c0.1-0.09,0.18-0.09,0.48-0.09h1.15c0.18,0,0.28,0,0.35,0.06c0.04,0.04,0.08,0.09,0.08,0.16
				c0,0.06-0.03,0.12-0.08,0.17c-0.07,0.06-0.17,0.06-0.35,0.06H70.6V40.75z"/>
			<path class="st1" d="M74.11,41.71c0.2,0,0.3,0,0.38,0.06c0.04,0.04,0.09,0.09,0.09,0.17c0,0.07-0.03,0.13-0.09,0.18
				c-0.08,0.07-0.18,0.07-0.38,0.07H73.1c-0.31,0-0.37,0-0.48-0.09c-0.1-0.08-0.1-0.16-0.1-0.41v-1.37c0-0.21,0-0.32,0.09-0.4
				c0.05-0.04,0.13-0.09,0.25-0.09c0.09,0,0.19,0.03,0.25,0.09c0.09,0.08,0.09,0.19,0.09,0.4v1.39H74.11z"/>
			<path class="st1" d="M76.12,39.82c0.95,0,1.36,0.52,1.36,1.2c0,0.67-0.4,1.21-1.34,1.21c-0.91,0-1.35-0.5-1.35-1.21
				C74.79,40.37,75.19,39.82,76.12,39.82z M75.66,41.57c0.07,0.08,0.22,0.19,0.47,0.19c0.24,0,0.43-0.1,0.54-0.26
				c0.09-0.14,0.11-0.33,0.11-0.48c0-0.13,0-0.72-0.65-0.72c-0.42,0-0.65,0.26-0.65,0.72C75.48,41.33,75.58,41.47,75.66,41.57z"/>
			<path class="st1" d="M78.61,41.73c0,0.21,0,0.32-0.09,0.4c-0.05,0.05-0.13,0.09-0.25,0.09c-0.09,0-0.19-0.03-0.25-0.09
				c-0.09-0.08-0.09-0.19-0.09-0.4v-1.37c0-0.27,0-0.32,0.1-0.41c0.09-0.09,0.18-0.09,0.48-0.09h0.53c0.38,0,0.62,0.02,0.82,0.18
				c0.12,0.09,0.24,0.25,0.24,0.54c0,0.11-0.01,0.46-0.41,0.65c-0.21,0.1-0.51,0.09-0.67,0.09h-0.41V41.73z M78.61,40.88h0.25
				c0.08,0,0.27,0,0.37-0.04s0.18-0.13,0.18-0.25c0-0.1-0.05-0.2-0.16-0.25c-0.06-0.03-0.14-0.04-0.39-0.04h-0.25V40.88z"/>
			<path class="st1" d="M82.24,40.28c0.12-0.38,0.13-0.42,0.6-0.42c0.19,0,0.32,0.01,0.42,0.14c0.05,0.07,0.05,0.16,0.05,0.36v1.44
				c0,0.19,0,0.28-0.08,0.34c-0.05,0.04-0.12,0.08-0.22,0.08c-0.08,0-0.16-0.03-0.22-0.08c-0.08-0.07-0.08-0.17-0.08-0.35v-1.42
				l-0.42,1.42c-0.06,0.2-0.09,0.3-0.17,0.36c-0.05,0.04-0.13,0.07-0.23,0.07c-0.08,0-0.16-0.03-0.23-0.07
				C81.6,42.1,81.57,42,81.51,41.8l-0.42-1.42v1.42c0,0.19,0,0.28-0.08,0.34c-0.04,0.04-0.12,0.08-0.22,0.08
				c-0.08,0-0.16-0.03-0.22-0.08c-0.08-0.07-0.08-0.17-0.08-0.35v-1.44c0-0.26,0-0.32,0.1-0.41c0.1-0.09,0.2-0.09,0.38-0.09
				c0.29,0,0.37,0.01,0.47,0.1c0.05,0.05,0.07,0.11,0.13,0.32l0.33,1.08L82.24,40.28z"/>
			<path class="st1" d="M84.54,40.75h0.95c0.18,0,0.27,0,0.34,0.06c0.03,0.03,0.08,0.08,0.08,0.16c0,0.06-0.03,0.12-0.08,0.16
				c-0.07,0.06-0.16,0.06-0.34,0.06h-0.95v0.54h1.07c0.19,0,0.29,0,0.36,0.06c0.04,0.03,0.09,0.09,0.09,0.17
				c0,0.06-0.03,0.12-0.08,0.17c-0.07,0.06-0.17,0.06-0.36,0.06h-1.18c-0.31,0-0.37,0-0.48-0.09c-0.1-0.08-0.1-0.16-0.1-0.41v-1.33
				c0-0.27,0-0.32,0.1-0.41c0.1-0.09,0.18-0.09,0.48-0.09h1.15c0.18,0,0.28,0,0.35,0.06c0.04,0.04,0.08,0.09,0.08,0.16
				c0,0.06-0.03,0.12-0.08,0.17c-0.07,0.06-0.17,0.06-0.35,0.06h-1.04V40.75z"/>
			<path class="st1" d="M88.18,40.29c0-0.2,0-0.3,0.09-0.38c0.04-0.04,0.12-0.09,0.23-0.09c0.09,0,0.18,0.03,0.24,0.08
				c0.08,0.07,0.08,0.18,0.08,0.38v1.35c0,0.31,0,0.4-0.14,0.51c-0.05,0.04-0.13,0.09-0.28,0.09c-0.22,0-0.29-0.09-0.49-0.36
				l-0.8-1.07v0.97c0,0.2,0,0.3-0.08,0.37c-0.05,0.04-0.13,0.09-0.24,0.09c-0.09,0-0.18-0.03-0.24-0.08
				c-0.08-0.08-0.09-0.18-0.09-0.38v-1.36c0-0.31,0-0.39,0.14-0.5c0.04-0.04,0.13-0.09,0.27-0.09c0.21,0,0.29,0.09,0.48,0.36
				l0.82,1.1V40.29z"/>
			<path class="st1" d="M89.62,40.35c-0.2,0-0.3,0-0.38-0.07c-0.04-0.03-0.09-0.09-0.09-0.17c0-0.07,0.03-0.13,0.09-0.18
				c0.07-0.07,0.18-0.07,0.38-0.07h1.49c0.2,0,0.3,0,0.38,0.07c0.04,0.03,0.09,0.09,0.09,0.17c0,0.07-0.03,0.13-0.09,0.18
				c-0.08,0.07-0.18,0.07-0.38,0.07h-0.41v1.39c0,0.21,0,0.32-0.09,0.4c-0.05,0.04-0.13,0.09-0.25,0.09c-0.09,0-0.18-0.03-0.25-0.09
				c-0.09-0.08-0.09-0.19-0.09-0.4v-1.39H89.62z"/>
			<path class="st1" d="M93.66,41.73l-0.04,0.12c-0.09,0.24-0.14,0.38-0.38,0.38c-0.18,0-0.32-0.14-0.32-0.26
				c0-0.08,0.02-0.14,0.09-0.31l0.56-1.28c0.13-0.29,0.18-0.41,0.3-0.48c0.08-0.05,0.18-0.08,0.31-0.08c0.1,0,0.21,0.03,0.3,0.08
				c0.12,0.07,0.17,0.19,0.3,0.48l0.57,1.26c0.07,0.16,0.1,0.22,0.1,0.31c0,0.12-0.13,0.27-0.34,0.27c-0.24,0-0.3-0.14-0.39-0.38
				l-0.04-0.11H93.66z M94.49,41.29l-0.33-0.86l-0.33,0.86H94.49z"/>
			<path class="st1" d="M97.58,40.29c0-0.2,0-0.3,0.09-0.38c0.04-0.04,0.12-0.09,0.23-0.09c0.09,0,0.18,0.03,0.24,0.08
				c0.08,0.07,0.08,0.18,0.08,0.38v1.35c0,0.31,0,0.4-0.14,0.51c-0.05,0.04-0.13,0.09-0.28,0.09c-0.22,0-0.29-0.09-0.49-0.36
				l-0.8-1.07v0.97c0,0.2,0,0.3-0.08,0.37c-0.05,0.04-0.13,0.09-0.24,0.09c-0.09,0-0.18-0.03-0.24-0.08
				c-0.08-0.08-0.09-0.18-0.09-0.38v-1.36c0-0.31,0-0.39,0.14-0.5c0.04-0.04,0.13-0.09,0.27-0.09c0.21,0,0.29,0.09,0.48,0.36
				l0.82,1.1V40.29z"/>
			<path class="st1" d="M98.78,40.36c0-0.27,0-0.32,0.1-0.41c0.1-0.09,0.18-0.09,0.48-0.09h0.54c0.27,0,0.53,0.02,0.78,0.18
				c0.34,0.22,0.47,0.57,0.47,0.98c0,0.21-0.01,0.65-0.43,0.97c-0.19,0.14-0.5,0.21-0.8,0.21h-0.55c-0.31,0-0.42,0-0.53-0.14
				c-0.05-0.07-0.05-0.17-0.05-0.36V40.36z M99.47,41.73h0.3c0.32,0,0.68-0.01,0.68-0.7c0-0.7-0.36-0.71-0.76-0.71h-0.22V41.73z"/>
			<path class="st1" d="M103.44,41.73c0,0.21,0,0.32-0.09,0.4c-0.05,0.05-0.13,0.09-0.25,0.09c-0.09,0-0.19-0.03-0.25-0.09
				c-0.09-0.08-0.09-0.19-0.09-0.4v-1.37c0-0.27,0-0.32,0.1-0.41c0.09-0.09,0.18-0.09,0.48-0.09h0.53c0.38,0,0.62,0.02,0.82,0.18
				c0.12,0.09,0.24,0.25,0.24,0.54c0,0.11-0.01,0.46-0.41,0.65c-0.21,0.1-0.51,0.09-0.67,0.09h-0.41V41.73z M103.44,40.88h0.25
				c0.08,0,0.27,0,0.37-0.04s0.18-0.13,0.18-0.25c0-0.1-0.05-0.2-0.16-0.25c-0.06-0.03-0.14-0.04-0.39-0.04h-0.25V40.88z"/>
			<path class="st1" d="M106.05,40.75h0.95c0.18,0,0.27,0,0.34,0.06c0.03,0.03,0.08,0.08,0.08,0.16c0,0.06-0.03,0.12-0.08,0.16
				c-0.07,0.06-0.16,0.06-0.34,0.06h-0.95v0.54h1.07c0.19,0,0.29,0,0.36,0.06c0.04,0.03,0.09,0.09,0.09,0.17
				c0,0.06-0.03,0.12-0.08,0.17c-0.07,0.06-0.17,0.06-0.36,0.06h-1.18c-0.31,0-0.37,0-0.48-0.09c-0.1-0.08-0.1-0.16-0.1-0.41v-1.33
				c0-0.27,0-0.32,0.1-0.41c0.1-0.09,0.18-0.09,0.48-0.09h1.15c0.18,0,0.28,0,0.35,0.06c0.04,0.04,0.08,0.09,0.08,0.16
				c0,0.06-0.03,0.12-0.08,0.17c-0.07,0.06-0.17,0.06-0.35,0.06h-1.04V40.75z"/>
			<path class="st1" d="M108.59,41.73l-0.04,0.12c-0.09,0.24-0.14,0.38-0.38,0.38c-0.18,0-0.32-0.14-0.32-0.26
				c0-0.08,0.02-0.14,0.09-0.31l0.56-1.28c0.13-0.29,0.18-0.41,0.3-0.48c0.08-0.05,0.18-0.08,0.31-0.08c0.1,0,0.21,0.03,0.3,0.08
				c0.12,0.07,0.17,0.19,0.3,0.48l0.57,1.26c0.07,0.16,0.1,0.22,0.1,0.31c0,0.12-0.13,0.27-0.34,0.27c-0.24,0-0.3-0.14-0.39-0.38
				l-0.04-0.11H108.59z M109.43,41.29l-0.33-0.86l-0.33,0.86H109.43z"/>
			<path class="st1" d="M111.55,41.6c0.1,0.11,0.27,0.17,0.44,0.17c0.36,0,0.48-0.21,0.55-0.37c0.03-0.07,0.09-0.21,0.3-0.21
				c0.15,0,0.3,0.1,0.3,0.26c0,0.2-0.14,0.42-0.33,0.56c-0.18,0.14-0.39,0.23-0.8,0.23c-0.45,0-0.74-0.1-0.96-0.32
				c-0.3-0.28-0.35-0.62-0.35-0.87c0-0.74,0.51-1.21,1.3-1.21c0.86,0,1.15,0.49,1.15,0.73c0,0.12-0.12,0.26-0.3,0.26
				c-0.2,0-0.26-0.12-0.31-0.22c-0.1-0.18-0.27-0.31-0.53-0.31c-0.6,0-0.6,0.61-0.6,0.75C111.39,41.35,111.46,41.5,111.55,41.6z"/>
			<path class="st1" d="M114.29,40.75h0.95c0.18,0,0.27,0,0.34,0.06c0.03,0.03,0.08,0.08,0.08,0.16c0,0.06-0.03,0.12-0.08,0.16
				c-0.07,0.06-0.16,0.06-0.34,0.06h-0.95v0.54h1.07c0.19,0,0.29,0,0.36,0.06c0.04,0.03,0.09,0.09,0.09,0.17
				c0,0.06-0.03,0.12-0.08,0.17c-0.07,0.06-0.17,0.06-0.36,0.06h-1.18c-0.31,0-0.37,0-0.48-0.09c-0.1-0.08-0.1-0.16-0.1-0.41v-1.33
				c0-0.27,0-0.32,0.1-0.41c0.1-0.09,0.18-0.09,0.48-0.09h1.15c0.18,0,0.28,0,0.35,0.06c0.04,0.04,0.08,0.09,0.08,0.16
				c0,0.06-0.03,0.12-0.08,0.17c-0.07,0.06-0.17,0.06-0.35,0.06h-1.04V40.75z"/>
		</g>
	</g>
</g>
<g>
	<g id="O_2_">
		<linearGradient id="SVGID_1_" gradientUnits="userSpaceOnUse" x1="40.1251" y1="23.4886" x2="33.9806" y2="38.2355">
			<stop  offset="0" style="stop-color:#71BCDC"/>
			<stop  offset="1" style="stop-color:#176A86"/>
		</linearGradient>
		<path class="st3" d="M33.63,38.56l-1.89,2.48c-1.64-3.69-1.76-8.37-0.93-11.87c0.57-2.39,1.53-5,3.23-6.85
			c1.73-1.89,4.12-3.14,6.82-3.14c0.24,0,0.47,0.01,0.71,0.03c0.8,0.06,1.81,0.27,2.53,0.62c0.72,0.35,1.31,0.78,1.88,1.3
			c0.32,0.29,0.59,0.61,0.86,0.95c0.13,0.17,0.26,0.33,0.39,0.5c0.11,0.14,0.25,0.27,0.34,0.42c0,0.01,0.01,0.01,0.01,0.02
			l-1.32,2.26l-2.81,0.1c-0.27-0.29-0.43-0.41-0.76-0.62c-3.8-2.31-5.88,1.36-6.77,4.66c-0.71,2.64-0.69,5.48,0.2,8.05
			c0.1,0.28,0.29,0.9,0.57,1.42L33.63,38.56z"/>
		<linearGradient id="SVGID_2_" gradientUnits="userSpaceOnUse" x1="52.0002" y1="28.4366" x2="45.8556" y2="43.1834">
			<stop  offset="0" style="stop-color:#71BCDC"/>
			<stop  offset="1" style="stop-color:#176A86"/>
		</linearGradient>
		<path class="st4" d="M57,19.2c-3.05,2.92,1.42,12.26-5.38,11.4c0.14-1.56,0.27-2.92,0.4-4.3l-0.01,0c-0.38,1.76-0.61,6.59-2,9.45
			c0,0,0.03-5.15,0.03-5.15c0.57-0.41,0.52-1.8,0.38-2.42c-0.16-0.68-0.31-1.37-0.36-2.07c-0.06-0.95,0.11-1.47,0.34-2.14
			c0.27-0.8,0.77-1.49,1.4-2.11C53.16,20.54,55.21,19.85,57,19.2z"/>
		<linearGradient id="SVGID_3_" gradientUnits="userSpaceOnUse" x1="48.4242" y1="26.9466" x2="42.2797" y2="41.6935">
			<stop  offset="0" style="stop-color:#71BCDC"/>
			<stop  offset="1" style="stop-color:#176A86"/>
		</linearGradient>
		<path class="st5" d="M49.75,27.08c-0.48-1.29-1.05-2.63-1.86-3.77c-0.39,0.74-0.89,1.57-1.28,2.31c-0.9,0.05-2.01,0.08-2.91,0.12
			c1.21,1.59,1.91,3.47,2.31,5.38c0.19,0.92,0.28,1.87,0.21,2.8c-0.11,1.3-0.29,2.68-1.04,3.78c-0.74,1.08-1.99,1.96-3.26,2.41
			c-0.63,0.22-1.3,0.35-1.98,0.35c-0.77-0.01-1.53-0.27-2.24-0.53c0.43,0.33,0.84,0.71,1.31,0.99c2.48,1.46,5.79,0.98,7.97-0.75
			c2.01-1.6,3.27-4.09,3.52-6.57c0.11-1.06,0.22-2.15,0.08-3.21C50.43,29.27,50.16,28.16,49.75,27.08z"/>
		<linearGradient id="SVGID_4_" gradientUnits="userSpaceOnUse" x1="46.6997" y1="26.228" x2="40.5551" y2="40.9749">
			<stop  offset="0" style="stop-color:#71BCDC"/>
			<stop  offset="1" style="stop-color:#176A86"/>
		</linearGradient>
		<path class="st6" d="M39.43,46.55c-3.6-0.65-5.5-2.11-7.46-5.09l1.79-2.41l3.21,0.3c1.17,1.79,2.95,2.76,5.19,2.92
			c3.61,0.26,6.68-2.62,8.1-5.83c-0.78,5.09-3.55,10.31-10.56,10.13C39.69,46.57,39.52,46.57,39.43,46.55z"/>
	</g>
	<g id="Y_2_">
		<linearGradient id="SVGID_5_" gradientUnits="userSpaceOnUse" x1="35.5421" y1="7.5604" x2="35.5421" y2="17.1621">
			<stop  offset="0" style="stop-color:#ECA350"/>
			<stop  offset="1" style="stop-color:#EB6809"/>
		</linearGradient>
		<path class="st7" d="M29.37,39.19c-0.49-1.17-1.01-2.35-1.31-3.59c-0.23-0.93-0.55-1.87-0.69-2.81c-0.14-0.95-0.37-1.91-0.41-2.87
			c-0.05-0.96-0.03-1.91,0.03-2.87c0.45-6.53,3.85-13.05,9.64-16.29c2.16-1.21,5.06-1.67,7.53-1.64c-0.83,1.3-2.24,3.66-3.27,4.81
			c-1.92,2.15-3.02,2.84-5.1,4.72c-2.1,1.91-3.91,4.03-4.99,6.65c-0.99,2.4-1.38,5.03-1.36,7.63c0.01,0.96-0.06,1.91,0.05,2.86
			c0.11,0.95,0.26,1.9,0.44,2.84c0.21,1.08,0.53,2.14,0.77,3.22"/>
		
			<linearGradient id="SVGID_6_" gradientUnits="userSpaceOnUse" x1="26.5791" y1="126.9457" x2="26.5791" y2="135.5289" gradientTransform="matrix(0.9995 0.0319 -0.0333 1.043 -1.5928 -125.3729)">
			<stop  offset="0" style="stop-color:#ECA350"/>
			<stop  offset="1" style="stop-color:#EB6809"/>
		</linearGradient>
		<path class="st8" d="M13.78,9.41C24.15,7.02,28.03,19.62,27,25.92c-0.57-2.42-1.86-4.41-3.45-6.31c-1.68-2-2.32-2.34-6.24-6.21"/>
		<linearGradient id="SVGID_7_" gradientUnits="userSpaceOnUse" x1="28.9296" y1="7.0786" x2="28.9296" y2="16.5847">
			<stop  offset="0" style="stop-color:#ECA350"/>
			<stop  offset="1" style="stop-color:#EB6809"/>
		</linearGradient>
		<path class="st9" d="M28.95,4.19c5.23,0.31,5.05,7.3,0.17,7.65C23.58,11.84,23.82,4.32,28.95,4.19z"/>
	</g>
	<g id="R_2_">
		<g>
			<linearGradient id="SVGID_8_" gradientUnits="userSpaceOnUse" x1="18.7813" y1="26.971" x2="10.4273" y2="44.6072">
				<stop  offset="0" style="stop-color:#71BCDC"/>
				<stop  offset="1" style="stop-color:#176A86"/>
			</linearGradient>
			<path class="st10" d="M11.87,46.49c0.29,0.09,0.57,0.07,0.86,0.01c0-4.82,0-8.71,0-11.27c-0.26-0.16-0.55-0.27-0.86-0.43
				C11.87,37.49,11.87,41.54,11.87,46.49z"/>
			<linearGradient id="SVGID_9_" gradientUnits="userSpaceOnUse" x1="16.4923" y1="26.0936" x2="8.2838" y2="43.4227">
				<stop  offset="0" style="stop-color:#71BCDC"/>
				<stop  offset="1" style="stop-color:#176A86"/>
			</linearGradient>
			<path class="st11" d="M8.18,43.37c0.12,3.91,2.96,3.13,3.45,3.15c0-4.99,0-9.13,0-11.84c-1.03-0.51-2.26-0.97-3.44-1.21
				C8.18,35.68,8.18,38.92,8.18,43.37z"/>
		</g>
		<linearGradient id="SVGID_10_" gradientUnits="userSpaceOnUse" x1="11.9635" y1="23.8836" x2="3.955" y2="40.7903">
			<stop  offset="0" style="stop-color:#71BCDC"/>
			<stop  offset="1" style="stop-color:#176A86"/>
		</linearGradient>
		<path class="st12" d="M11.62,29.17v-6.48c0.1,0,0.16,0,0.25,0c0,2.16,0,4.32,0,6.49c0.28,0.01,0.56,0.02,0.84,0.03
			c0.01-2.35,0.12-4.87-0.06-7.08c-5.35,1.58-4.49,2.29-4.46,7.2C9.25,29.11,10.42,29.13,11.62,29.17z"/>
		<linearGradient id="SVGID_11_" gradientUnits="userSpaceOnUse" x1="22.5474" y1="28.5014" x2="14.261" y2="45.9949">
			<stop  offset="0" style="stop-color:#71BCDC"/>
			<stop  offset="1" style="stop-color:#176A86"/>
		</linearGradient>
		<path class="st13" d="M31.08,45c-10.32,0.62-4.34-10.46-15.31-11.31c4.05-1.32,8.42-3.98,9.21-8.43
			c-0.02-0.01-0.02-0.01-0.04-0.01c-1.77,3.3-4.65,4.82-7.8,5.68c16.9-6.63,2.35-16.25-7.15-9.4c1.22-1.18,2.76-1.97,4.49-2.23
			c0-0.04,0-0.03,0-0.07c-3.09-0.1-6.72,1.87-6.88,5.14c0,0,0,0,0.01-0.01c-0.01,0.27,0,0.56,0.03,0.84
			c0.72-3.31,7.46-4.17,11.04-3.36c0.62,0.14,1.21,0.38,1.74,0.73c2.07,1.37,1.86,3.4-0.3,5.37c-1.84,1.68-4.57,1.7-6.92,1.64
			c-0.31-0.01-0.62-0.02-0.93-0.03c-0.09,0-0.19-0.01-0.28-0.01c-0.17-0.01-0.33-0.01-0.5-0.01c-0.5-0.01-0.99-0.02-1.46-0.01
			C9.4,29.55,8.79,29.6,8.2,29.71l0,0l0,0c0,0-0.9,0.24-0.98,0.27c-0.31,0.11-0.61,0.25-0.89,0.42c-0.55,0.32-1.02,0.74-1.41,1.21
			c-0.76,0.9-1.49,2.07-1.56,3.23c0.34-0.83,1.04-1.39,1.96-1.63c0.47-0.12,0.97-0.17,1.46-0.17c0.12,0,1.41,0.05,1.41,0.13
			c0.65,0.12,1.32,0.3,1.97,0.51c0.49,0.16,0.96,0.34,1.41,0.53c0.15,0.06,0.3,0.13,0.44,0.19c0.09,0.04,0.18,0.08,0.27,0.13v0
			c0.35,0.16,0.67,0.33,0.96,0.49c0.57,0.32,1.02,0.62,1.29,0.87c2.42,2.66,4.48,14.99,17.55,8.95C32.04,44.84,31.4,44.98,31.08,45z
			 M17.41,37.22c-0.81-0.89-1.95-1.74-3.25-2.49c0,0,0,0,0,0c-0.13-0.07,0.06,0.02-0.58-0.32c0-0.01,0.01-0.02,0.01-0.03
			c4.5,1.35,5.49,4.66,7.66,7.45L17.41,37.22z M22.13,42.91l-0.21-0.23c0.28,0.28,0.59,0.56,0.92,0.82
			C22.59,43.32,22.36,43.12,22.13,42.91z"/>
		<linearGradient id="SVGID_12_" gradientUnits="userSpaceOnUse" x1="8.5507" y1="22.0956" x2="0.2263" y2="39.6693">
			<stop  offset="0" style="stop-color:#71BCDC"/>
			<stop  offset="1" style="stop-color:#176A86"/>
		</linearGradient>
		<path class="st14" d="M7.83,27.54c-1.57-2.76-0.65-5.73,2.21-7.95C6.33,20.12,4.67,25.37,7.83,27.54z"/>
	</g>
</g>
<g class="st15">
	<g id="Name_1_" class="st16">
		<g>
			<g>
				<path class="st0" d="M28.47,32.38c-0.12-0.18-0.18-0.2-0.3-0.2h-0.05v0.28c0,0.12,0,0.18-0.05,0.22
					c-0.03,0.03-0.08,0.05-0.14,0.05c-0.05,0-0.1-0.02-0.14-0.05c-0.05-0.04-0.05-0.11-0.05-0.22V31.7c0-0.15,0-0.18,0.06-0.23
					c0.05-0.05,0.1-0.05,0.26-0.05h0.38c0.1,0,0.24,0,0.34,0.04c0.18,0.06,0.24,0.21,0.24,0.33c0,0.11-0.05,0.22-0.15,0.28
					c-0.08,0.05-0.16,0.07-0.22,0.08c0.1,0.04,0.15,0.09,0.22,0.18c0.07,0.08,0.15,0.22,0.15,0.29c0,0.08-0.08,0.13-0.18,0.13
					c-0.13,0-0.18-0.07-0.27-0.21L28.47,32.38z M28.12,31.96h0.21c0.14,0,0.31,0,0.31-0.15c0-0.15-0.16-0.15-0.3-0.15h-0.22V31.96z"
					/>
				<path class="st0" d="M29.64,31.92h0.53c0.1,0,0.15,0,0.19,0.03c0.02,0.02,0.04,0.05,0.04,0.09c0,0.03-0.02,0.07-0.04,0.09
					c-0.04,0.03-0.09,0.03-0.19,0.03h-0.53v0.3h0.6c0.11,0,0.16,0,0.2,0.04c0.02,0.02,0.05,0.05,0.05,0.09
					c0,0.04-0.02,0.07-0.05,0.09c-0.04,0.03-0.1,0.03-0.2,0.03h-0.66c-0.17,0-0.2,0-0.27-0.05c-0.06-0.04-0.06-0.09-0.06-0.23V31.7
					c0-0.15,0-0.18,0.06-0.23c0.05-0.05,0.1-0.05,0.27-0.05h0.64c0.1,0,0.15,0,0.19,0.03c0.02,0.02,0.05,0.05,0.05,0.09
					c0,0.04-0.02,0.07-0.04,0.09c-0.04,0.03-0.09,0.03-0.19,0.03h-0.58V31.92z"/>
				<path class="st0" d="M31.63,31.66c0-0.11,0-0.17,0.05-0.21c0.02-0.02,0.07-0.05,0.13-0.05c0.05,0,0.1,0.02,0.13,0.05
					c0.05,0.04,0.05,0.1,0.05,0.21v0.75c0,0.17,0,0.22-0.08,0.28c-0.03,0.02-0.08,0.05-0.15,0.05c-0.12,0-0.16-0.05-0.27-0.2
					l-0.45-0.6v0.54c0,0.11,0,0.17-0.05,0.21c-0.03,0.02-0.07,0.05-0.13,0.05c-0.05,0-0.1-0.02-0.13-0.05
					c-0.05-0.04-0.05-0.1-0.05-0.21v-0.76c0-0.17,0-0.22,0.08-0.28c0.02-0.02,0.07-0.05,0.15-0.05c0.12,0,0.16,0.05,0.27,0.2
					l0.46,0.62V31.66z"/>
				<path class="st0" d="M32.64,31.92h0.53c0.1,0,0.15,0,0.19,0.03c0.02,0.02,0.04,0.05,0.04,0.09c0,0.03-0.02,0.07-0.04,0.09
					c-0.04,0.03-0.09,0.03-0.19,0.03h-0.53v0.3h0.6c0.11,0,0.16,0,0.2,0.04c0.02,0.02,0.05,0.05,0.05,0.09
					c0,0.04-0.02,0.07-0.05,0.09c-0.04,0.03-0.1,0.03-0.2,0.03h-0.66c-0.17,0-0.2,0-0.27-0.05c-0.06-0.04-0.06-0.09-0.06-0.23V31.7
					c0-0.15,0-0.18,0.06-0.23c0.05-0.05,0.1-0.05,0.27-0.05h0.64c0.1,0,0.15,0,0.19,0.03c0.02,0.02,0.05,0.05,0.05,0.09
					c0,0.04-0.02,0.07-0.04,0.09c-0.04,0.03-0.09,0.03-0.19,0.03h-0.58V31.92z"/>
				<path class="st0" d="M34.25,31.7c0.04-0.12,0.07-0.3,0.28-0.3c0.2,0,0.24,0.14,0.29,0.3l0.16,0.53l0.15-0.61
					c0.03-0.11,0.04-0.17,0.1-0.2c0.03-0.01,0.06-0.03,0.1-0.03c0.1,0,0.18,0.07,0.18,0.15c0,0.04,0,0.05-0.03,0.15l-0.2,0.75
					c-0.04,0.15-0.06,0.2-0.11,0.24c-0.04,0.03-0.09,0.05-0.16,0.05c-0.06,0-0.11-0.01-0.15-0.04c-0.06-0.04-0.08-0.11-0.12-0.25
					l-0.2-0.63l-0.19,0.63c-0.04,0.14-0.07,0.19-0.11,0.24c-0.03,0.03-0.1,0.05-0.16,0.05c-0.06,0-0.12-0.01-0.16-0.05
					c-0.06-0.04-0.08-0.11-0.11-0.25l-0.2-0.75c-0.02-0.09-0.03-0.11-0.03-0.15c0-0.08,0.08-0.15,0.18-0.15
					c0.04,0,0.08,0.01,0.1,0.03c0.06,0.03,0.07,0.09,0.1,0.2l0.14,0.6L34.25,31.7z"/>
				<path class="st0" d="M36,32.47l-0.03,0.07c-0.05,0.13-0.08,0.21-0.21,0.21c-0.1,0-0.18-0.08-0.18-0.15
					c0-0.05,0.01-0.08,0.05-0.17l0.31-0.71c0.07-0.16,0.1-0.23,0.17-0.27c0.04-0.03,0.1-0.05,0.17-0.05c0.06,0,0.12,0.02,0.17,0.04
					c0.07,0.04,0.09,0.11,0.17,0.27l0.32,0.71c0.04,0.09,0.06,0.13,0.06,0.17c0,0.07-0.07,0.15-0.19,0.15
					c-0.13,0-0.17-0.08-0.22-0.21l-0.03-0.06H36z M36.46,32.22l-0.19-0.48l-0.18,0.48H36.46z"/>
				<path class="st0" d="M38.06,32.45c0.11,0,0.17,0,0.21,0.03c0.02,0.02,0.05,0.05,0.05,0.1c0,0.04-0.02,0.07-0.05,0.1
					c-0.04,0.04-0.1,0.04-0.21,0.04H37.5c-0.17,0-0.21,0-0.27-0.05c-0.06-0.04-0.06-0.09-0.06-0.23v-0.77c0-0.12,0-0.18,0.05-0.22
					c0.03-0.02,0.08-0.05,0.14-0.05c0.05,0,0.1,0.02,0.14,0.05c0.05,0.04,0.05,0.11,0.05,0.22v0.78H38.06z"/>
				<path class="st1" d="M39.07,31.75c-0.1-0.14-0.11-0.17-0.11-0.22c0-0.08,0.08-0.14,0.18-0.14c0.1,0,0.14,0.06,0.24,0.2l0.21,0.3
					l0.2-0.3c0.1-0.14,0.14-0.2,0.25-0.2c0.11,0,0.17,0.07,0.17,0.13c0,0.05-0.01,0.08-0.11,0.22l-0.32,0.43v0.29
					c0,0.12,0,0.18-0.05,0.22c-0.03,0.02-0.07,0.05-0.14,0.05c-0.05,0-0.1-0.02-0.14-0.05c-0.05-0.04-0.05-0.11-0.05-0.22v-0.29
					L39.07,31.75z"/>
				<path class="st1" d="M41.02,31.4c0.53,0,0.76,0.29,0.76,0.67c0,0.37-0.22,0.67-0.75,0.67c-0.51,0-0.75-0.28-0.75-0.68
					C40.28,31.71,40.51,31.4,41.02,31.4z M40.77,32.37c0.04,0.04,0.12,0.11,0.26,0.11c0.14,0,0.24-0.06,0.3-0.15
					c0.05-0.08,0.06-0.18,0.06-0.27c0-0.07,0-0.4-0.36-0.4c-0.24,0-0.36,0.15-0.36,0.4C40.67,32.24,40.72,32.32,40.77,32.37z"/>
				<path class="st1" d="M42.36,32.17c0,0.12,0,0.31,0.28,0.31c0.27,0,0.27-0.18,0.27-0.3v-0.5c0-0.12,0-0.18,0.05-0.22
					c0.03-0.02,0.08-0.05,0.14-0.05c0.05,0,0.1,0.02,0.14,0.05c0.05,0.04,0.05,0.11,0.05,0.22v0.47c0,0.15-0.01,0.28-0.09,0.38
					c-0.13,0.17-0.33,0.21-0.54,0.21c-0.21,0-0.47-0.01-0.61-0.23c-0.08-0.12-0.08-0.31-0.08-0.36v-0.48c0-0.12,0-0.18,0.05-0.22
					c0.03-0.02,0.08-0.05,0.14-0.05c0.05,0,0.1,0.02,0.14,0.05c0.05,0.04,0.05,0.11,0.05,0.22V32.17z"/>
				<path class="st1" d="M43.69,31.69c-0.11,0-0.17,0-0.21-0.04c-0.02-0.02-0.05-0.05-0.05-0.1c0-0.04,0.02-0.07,0.05-0.1
					c0.04-0.04,0.1-0.04,0.21-0.04h0.83c0.11,0,0.17,0,0.21,0.04c0.02,0.02,0.05,0.05,0.05,0.1c0,0.04-0.02,0.07-0.05,0.1
					c-0.04,0.04-0.1,0.04-0.21,0.04H44.3v0.78c0,0.12,0,0.18-0.05,0.22c-0.03,0.02-0.07,0.05-0.14,0.05c-0.05,0-0.1-0.02-0.14-0.05
					c-0.05-0.04-0.05-0.11-0.05-0.22v-0.78H43.69z"/>
				<path class="st1" d="M45.86,31.91v-0.23c0-0.12,0-0.18,0.05-0.22c0.03-0.03,0.08-0.05,0.14-0.05c0.05,0,0.1,0.02,0.14,0.05
					c0.05,0.04,0.05,0.11,0.05,0.23v0.79c0,0.12,0,0.18-0.05,0.22c-0.03,0.03-0.08,0.05-0.14,0.05c-0.05,0-0.1-0.02-0.14-0.05
					c-0.05-0.04-0.05-0.11-0.05-0.22v-0.29h-0.55v0.29c0,0.12,0,0.18-0.05,0.22c-0.03,0.02-0.08,0.05-0.14,0.05
					c-0.05,0-0.1-0.02-0.14-0.05c-0.05-0.04-0.05-0.11-0.05-0.22v-0.79c0-0.12,0-0.18,0.05-0.22c0.03-0.02,0.08-0.05,0.14-0.05
					c0.05,0,0.1,0.02,0.14,0.05c0.05,0.04,0.05,0.11,0.05,0.22v0.23H45.86z"/>
				<path class="st1" d="M47.78,31.4c0.53,0,0.76,0.29,0.76,0.67c0,0.37-0.22,0.67-0.75,0.67c-0.51,0-0.75-0.28-0.75-0.68
					C47.04,31.71,47.27,31.4,47.78,31.4z M47.53,32.37c0.04,0.04,0.12,0.11,0.26,0.11c0.14,0,0.24-0.06,0.3-0.15
					c0.05-0.08,0.06-0.18,0.06-0.27c0-0.07,0-0.4-0.36-0.4c-0.24,0-0.36,0.15-0.36,0.4C47.43,32.24,47.48,32.32,47.53,32.37z"/>
				<path class="st1" d="M49.48,32.38c-0.12-0.18-0.18-0.2-0.3-0.2h-0.05v0.28c0,0.12,0,0.18-0.05,0.22
					c-0.03,0.03-0.08,0.05-0.14,0.05c-0.05,0-0.1-0.02-0.14-0.05c-0.05-0.04-0.05-0.11-0.05-0.22V31.7c0-0.15,0-0.18,0.06-0.23
					c0.05-0.05,0.1-0.05,0.26-0.05h0.38c0.1,0,0.24,0,0.34,0.04c0.18,0.06,0.24,0.21,0.24,0.33c0,0.11-0.05,0.22-0.15,0.28
					c-0.08,0.05-0.16,0.07-0.22,0.08c0.1,0.04,0.15,0.09,0.22,0.18c0.07,0.08,0.15,0.22,0.15,0.29c0,0.08-0.08,0.13-0.18,0.13
					c-0.13,0-0.18-0.07-0.27-0.21L49.48,32.38z M49.13,31.96h0.21c0.14,0,0.31,0,0.31-0.15c0-0.15-0.16-0.15-0.3-0.15h-0.22V31.96z"
					/>
				<path class="st1" d="M51.31,32.27h-0.12c-0.11,0-0.15-0.01-0.18-0.03c-0.03-0.02-0.05-0.06-0.05-0.09c0-0.04,0.02-0.08,0.06-0.1
					c0.04-0.02,0.08-0.02,0.11-0.02h0.29c0.15,0,0.24,0.03,0.24,0.22v0.17c0,0.08-0.01,0.13-0.09,0.19
					c-0.04,0.02-0.26,0.15-0.6,0.15c-0.55,0-0.77-0.32-0.77-0.67c0-0.19,0.06-0.37,0.22-0.5c0.13-0.11,0.32-0.17,0.58-0.17
					c0.48,0,0.6,0.25,0.6,0.34c0,0.06-0.06,0.15-0.18,0.15c-0.08,0-0.13-0.04-0.14-0.06c-0.08-0.1-0.09-0.12-0.17-0.15
					c-0.05-0.02-0.1-0.02-0.14-0.02c-0.1,0-0.22,0.02-0.3,0.13c-0.04,0.06-0.08,0.14-0.08,0.28c0,0.27,0.11,0.43,0.4,0.43
					c0.11,0,0.23-0.03,0.32-0.07V32.27z"/>
				<path class="st1" d="M52.24,32.47l-0.03,0.07c-0.05,0.13-0.08,0.21-0.21,0.21c-0.1,0-0.18-0.08-0.18-0.15
					c0-0.05,0.01-0.08,0.05-0.17l0.31-0.71c0.07-0.16,0.1-0.23,0.17-0.27c0.04-0.03,0.1-0.05,0.17-0.05c0.06,0,0.12,0.02,0.17,0.04
					c0.07,0.04,0.09,0.11,0.17,0.27l0.32,0.71c0.04,0.09,0.06,0.13,0.06,0.17c0,0.07-0.07,0.15-0.19,0.15
					c-0.13,0-0.17-0.08-0.22-0.21l-0.03-0.06H52.24z M52.7,32.22l-0.19-0.48l-0.18,0.48H52.7z"/>
				<path class="st1" d="M54.38,31.66c0-0.11,0-0.17,0.05-0.21c0.02-0.02,0.07-0.05,0.13-0.05c0.05,0,0.1,0.02,0.13,0.05
					c0.05,0.04,0.05,0.1,0.05,0.21v0.75c0,0.17,0,0.22-0.08,0.28c-0.03,0.02-0.08,0.05-0.15,0.05c-0.12,0-0.16-0.05-0.27-0.2
					l-0.45-0.6v0.54c0,0.11,0,0.17-0.05,0.21c-0.03,0.02-0.07,0.05-0.13,0.05c-0.05,0-0.1-0.02-0.13-0.05
					c-0.05-0.04-0.05-0.1-0.05-0.21v-0.76c0-0.17,0-0.22,0.08-0.28c0.02-0.02,0.07-0.05,0.15-0.05c0.12,0,0.16,0.05,0.27,0.2
					l0.46,0.62V31.66z"/>
				<path class="st1" d="M55.4,32.47c0,0.12,0,0.18-0.05,0.22c-0.03,0.03-0.08,0.05-0.14,0.05c-0.05,0-0.1-0.02-0.14-0.05
					c-0.05-0.04-0.05-0.11-0.05-0.22v-0.79c0-0.12,0-0.18,0.05-0.22c0.03-0.02,0.08-0.05,0.14-0.05c0.05,0,0.1,0.02,0.14,0.05
					c0.05,0.04,0.05,0.11,0.05,0.22V32.47z"/>
				<path class="st1" d="M55.83,31.67c-0.1,0-0.14,0-0.19-0.03c-0.02-0.01-0.05-0.05-0.05-0.09c0-0.14,0.15-0.13,0.24-0.13h0.71
					c0.15,0,0.19,0,0.24,0.04c0.04,0.03,0.05,0.07,0.05,0.11c0,0.05-0.02,0.08-0.12,0.18l-0.73,0.72h0.65c0.1,0,0.16,0,0.19,0.03
					c0.02,0.02,0.04,0.05,0.04,0.09c0,0.03-0.01,0.07-0.04,0.09c-0.04,0.03-0.09,0.03-0.19,0.03h-0.79c-0.18,0-0.22,0-0.28-0.05
					c-0.04-0.04-0.06-0.08-0.06-0.13c0-0.06,0.03-0.09,0.14-0.2l0.69-0.67H55.83z"/>
				<path class="st1" d="M57.35,32.47l-0.03,0.07c-0.05,0.13-0.08,0.21-0.21,0.21c-0.1,0-0.18-0.08-0.18-0.15
					c0-0.05,0.01-0.08,0.05-0.17l0.31-0.71c0.07-0.16,0.1-0.23,0.17-0.27c0.04-0.03,0.1-0.05,0.17-0.05c0.06,0,0.12,0.02,0.17,0.04
					c0.07,0.04,0.09,0.11,0.17,0.27l0.32,0.71c0.04,0.09,0.06,0.13,0.06,0.17c0,0.07-0.07,0.15-0.19,0.15
					c-0.13,0-0.17-0.08-0.22-0.21l-0.03-0.06H57.35z M57.82,32.22l-0.19-0.48l-0.18,0.48H57.82z"/>
				<path class="st1" d="M58.66,31.69c-0.11,0-0.17,0-0.21-0.04c-0.02-0.02-0.05-0.05-0.05-0.1c0-0.04,0.02-0.07,0.05-0.1
					c0.04-0.04,0.1-0.04,0.21-0.04h0.83c0.11,0,0.17,0,0.21,0.04c0.02,0.02,0.05,0.05,0.05,0.1c0,0.04-0.02,0.07-0.05,0.1
					c-0.04,0.04-0.1,0.04-0.21,0.04h-0.23v0.78c0,0.12,0,0.18-0.05,0.22c-0.03,0.02-0.07,0.05-0.14,0.05c-0.05,0-0.1-0.02-0.14-0.05
					c-0.05-0.04-0.05-0.11-0.05-0.22v-0.78H58.66z"/>
				<path class="st1" d="M60.27,32.47c0,0.12,0,0.18-0.05,0.22c-0.03,0.03-0.08,0.05-0.14,0.05c-0.05,0-0.1-0.02-0.14-0.05
					c-0.05-0.04-0.05-0.11-0.05-0.22v-0.79c0-0.12,0-0.18,0.05-0.22c0.03-0.02,0.08-0.05,0.14-0.05c0.05,0,0.1,0.02,0.14,0.05
					c0.05,0.04,0.05,0.11,0.05,0.22V32.47z"/>
				<path class="st1" d="M61.22,31.4c0.53,0,0.76,0.29,0.76,0.67c0,0.37-0.22,0.67-0.75,0.67c-0.51,0-0.75-0.28-0.75-0.68
					C60.48,31.71,60.7,31.4,61.22,31.4z M60.96,32.37c0.04,0.04,0.12,0.11,0.26,0.11c0.14,0,0.24-0.06,0.3-0.15
					c0.05-0.08,0.06-0.18,0.06-0.27c0-0.07,0-0.4-0.36-0.4c-0.24,0-0.36,0.15-0.36,0.4C60.86,32.24,60.91,32.32,60.96,32.37z"/>
				<path class="st1" d="M63.13,31.66c0-0.11,0-0.17,0.05-0.21c0.03-0.02,0.07-0.05,0.13-0.05c0.05,0,0.1,0.02,0.13,0.05
					c0.05,0.04,0.05,0.1,0.05,0.21v0.75c0,0.17,0,0.22-0.08,0.28c-0.03,0.02-0.08,0.05-0.16,0.05c-0.12,0-0.16-0.05-0.27-0.2
					l-0.45-0.6v0.54c0,0.11,0,0.17-0.05,0.21c-0.03,0.02-0.07,0.05-0.13,0.05c-0.05,0-0.1-0.02-0.13-0.05
					c-0.05-0.04-0.05-0.1-0.05-0.21v-0.76c0-0.17,0-0.22,0.08-0.28c0.03-0.02,0.07-0.05,0.15-0.05c0.12,0,0.16,0.05,0.27,0.2
					l0.46,0.62V31.66z"/>
			</g>
		</g>
		<g>
			<path class="st2" d="M28.62,30.93h-0.41v-0.77c0-0.14,0.05-0.25,0.14-0.34c0.1-0.09,0.21-0.13,0.34-0.13h0.07
				c0.04-0.1,0.11-0.19,0.2-0.25c0.1-0.06,0.2-0.1,0.32-0.1c0.16,0,0.29,0.05,0.4,0.16c0.11,0.11,0.17,0.24,0.17,0.39
				s-0.06,0.28-0.17,0.39s-0.24,0.16-0.4,0.16c-0.12,0-0.23-0.03-0.33-0.1c-0.1-0.07-0.16-0.15-0.2-0.26H28.7
				c-0.02,0-0.04,0.01-0.06,0.02s-0.02,0.03-0.02,0.06V30.93z M29.17,30.01c0.03,0.03,0.07,0.05,0.11,0.05
				c0.04,0,0.08-0.02,0.11-0.05c0.03-0.03,0.05-0.07,0.05-0.11s-0.02-0.08-0.05-0.11c-0.03-0.03-0.07-0.05-0.11-0.05
				c-0.04,0-0.08,0.02-0.11,0.05c-0.03,0.03-0.05,0.07-0.05,0.11S29.14,29.97,29.17,30.01z"/>
			<path class="st2" d="M30.72,30.45h-0.69v-0.39h0.69c0.03,0,0.05-0.01,0.07-0.03c0.02-0.02,0.03-0.05,0.03-0.08v-1.21h0.41v1.21
				c0,0.03,0.01,0.06,0.03,0.08c0.02,0.02,0.04,0.03,0.07,0.03h0.07v0.39h-0.07c-0.12,0-0.22-0.04-0.3-0.12
				C30.95,30.41,30.85,30.45,30.72,30.45z M30.49,29.96h-0.41v-1.12h0.41V29.96z"/>
			<path class="st2" d="M31.41,30.45h-0.06v-0.39h0.06c0.03,0,0.05-0.01,0.07-0.03c0.02-0.02,0.03-0.05,0.03-0.08v-0.6h0.41v0.59
				c0,0.03,0.01,0.06,0.03,0.08s0.05,0.03,0.08,0.03c0.03,0,0.06-0.01,0.07-0.03c0.02-0.02,0.03-0.05,0.03-0.08v-0.59h0.41v0.59
				c0,0.03,0.01,0.06,0.03,0.08s0.05,0.03,0.08,0.03s0.06-0.01,0.07-0.03s0.03-0.05,0.03-0.08v-0.59h0.41v0.6
				c0,0.03,0.01,0.06,0.03,0.08c0.02,0.02,0.04,0.03,0.07,0.03h0.06v0.39h-0.06c-0.13,0-0.23-0.04-0.3-0.12
				c-0.08,0.08-0.18,0.12-0.31,0.12c-0.13,0-0.23-0.04-0.31-0.12c-0.08,0.08-0.18,0.12-0.31,0.12c-0.13,0-0.23-0.04-0.31-0.12
				C31.63,30.41,31.53,30.45,31.41,30.45z"/>
			<path class="st2" d="M33.33,30.45h-0.07v-0.39h0.07c0.03,0,0.05-0.01,0.07-0.03c0.02-0.02,0.03-0.05,0.03-0.08v-1.21h0.41v1.21
				c0,0.14-0.05,0.26-0.14,0.36C33.59,30.4,33.47,30.45,33.33,30.45z"/>
			<path class="st2" d="M34.51,30.45h-0.41v-1.72h0.41V30.45z"/>
			<path class="st2" d="M35.28,30.97c-0.09,0-0.19-0.02-0.28-0.06c-0.09-0.04-0.17-0.1-0.22-0.16l0.28-0.26
				c0.06,0.06,0.13,0.09,0.21,0.09c0.05,0,0.09-0.01,0.12-0.04c0.03-0.03,0.05-0.06,0.05-0.09h-0.15c-0.16,0-0.3-0.05-0.41-0.16
				c-0.11-0.11-0.17-0.24-0.17-0.39c0-0.15,0.06-0.28,0.17-0.39s0.24-0.16,0.4-0.16c0.17,0,0.3,0.06,0.41,0.17
				c0.11,0.11,0.16,0.25,0.16,0.43v0.44c0,0.17-0.05,0.31-0.16,0.42C35.59,30.91,35.45,30.97,35.28,30.97z M35.29,30.05h0.15V29.9
				c0-0.05-0.02-0.08-0.05-0.12s-0.07-0.05-0.12-0.05c-0.04,0-0.08,0.01-0.11,0.05s-0.05,0.07-0.05,0.11c0,0.04,0.02,0.08,0.05,0.11
				S35.24,30.05,35.29,30.05z"/>
			<path class="st2" d="M37.17,30.45c-0.16,0-0.29-0.05-0.4-0.16s-0.17-0.24-0.17-0.39s0.06-0.28,0.17-0.39
				c0.11-0.11,0.24-0.16,0.4-0.16h0.56v0.6c0,0.03,0.01,0.06,0.03,0.08c0.02,0.02,0.04,0.03,0.07,0.03h0.08v0.39h-0.08
				c-0.13,0-0.24-0.04-0.31-0.13C37.42,30.4,37.31,30.45,37.17,30.45z M37.14,29.21c-0.04,0.04-0.09,0.06-0.15,0.06
				s-0.11-0.02-0.15-0.06c-0.04-0.04-0.06-0.09-0.06-0.14c0-0.06,0.02-0.1,0.06-0.14c0.04-0.04,0.09-0.06,0.15-0.06
				s0.11,0.02,0.15,0.06c0.04,0.04,0.06,0.09,0.06,0.14C37.2,29.13,37.18,29.17,37.14,29.21z M37.06,30.01
				c0.03,0.03,0.07,0.05,0.11,0.05c0.04,0,0.08-0.01,0.11-0.04c0.03-0.03,0.04-0.07,0.04-0.11v-0.16h-0.15
				c-0.04,0-0.08,0.02-0.11,0.05c-0.03,0.03-0.05,0.07-0.05,0.11S37.03,29.97,37.06,30.01z M37.6,29.21
				c-0.04,0.04-0.09,0.06-0.15,0.06c-0.06,0-0.11-0.02-0.15-0.06c-0.04-0.04-0.06-0.09-0.06-0.14s0.02-0.1,0.06-0.14
				c0.04-0.04,0.09-0.06,0.15-0.06c0.06,0,0.11,0.02,0.15,0.06c0.04,0.04,0.06,0.09,0.06,0.14C37.66,29.13,37.64,29.17,37.6,29.21z"
				/>
			<path class="st2" d="M38.07,30.45h-0.21v-0.39h0.21c0.03,0,0.05-0.01,0.07-0.03c0.02-0.02,0.03-0.05,0.03-0.08v-0.6l0.41,0v0.6
				c0,0.03,0.01,0.06,0.03,0.08c0.02,0.02,0.04,0.03,0.07,0.03h0.21v0.39h-0.21c-0.12,0-0.22-0.04-0.3-0.12
				C38.29,30.41,38.19,30.45,38.07,30.45z M38.3,30.9c-0.04,0.04-0.09,0.06-0.15,0.06S38.04,30.94,38,30.9s-0.06-0.09-0.06-0.14
				s0.02-0.1,0.06-0.14c0.04-0.04,0.09-0.06,0.15-0.06s0.11,0.02,0.15,0.06c0.04,0.04,0.06,0.09,0.06,0.14
				C38.35,30.81,38.33,30.86,38.3,30.9z M38.75,30.9c-0.04,0.04-0.09,0.06-0.15,0.06c-0.06,0-0.11-0.02-0.15-0.06
				c-0.04-0.04-0.06-0.09-0.06-0.14s0.02-0.1,0.06-0.14c0.04-0.04,0.09-0.06,0.15-0.06c0.06,0,0.11,0.02,0.15,0.06
				c0.04,0.04,0.06,0.09,0.06,0.14C38.81,30.81,38.79,30.86,38.75,30.9z"/>
			<path class="st2" d="M39.53,30.45h-0.69v-0.39h0.17c-0.03-0.05-0.05-0.1-0.05-0.15c0-0.15,0.06-0.28,0.17-0.39
				c0.11-0.11,0.24-0.16,0.4-0.16s0.29,0.05,0.4,0.16c0.11,0.11,0.17,0.24,0.17,0.39v0.08c0,0.02,0.01,0.04,0.02,0.06
				c0.01,0.02,0.03,0.02,0.06,0.02h0.07v0.39h-0.07c-0.12,0-0.22-0.04-0.28-0.13C39.79,30.4,39.67,30.45,39.53,30.45z M39.42,30.01
				c0.03,0.03,0.07,0.05,0.11,0.05s0.08-0.02,0.11-0.05c0.03-0.03,0.05-0.07,0.05-0.11s-0.02-0.08-0.05-0.11
				c-0.03-0.03-0.07-0.05-0.11-0.05s-0.08,0.02-0.11,0.05c-0.03,0.03-0.05,0.07-0.05,0.11S39.39,29.97,39.42,30.01z"/>
			<path class="st2" d="M40.28,30.45H40.2v-0.39h0.08c0.03,0,0.05-0.01,0.07-0.03c0.02-0.02,0.03-0.05,0.03-0.08v-0.6h0.41v0.6
				c0,0.03,0.01,0.06,0.03,0.08c0.02,0.02,0.04,0.03,0.07,0.03h0.07v0.39h-0.07c-0.12,0-0.22-0.04-0.3-0.12
				C40.5,30.41,40.4,30.45,40.28,30.45z M40.74,29.21c-0.04,0.04-0.09,0.06-0.15,0.06s-0.11-0.02-0.15-0.06s-0.06-0.09-0.06-0.15
				c0-0.06,0.02-0.11,0.06-0.15s0.09-0.06,0.15-0.06s0.11,0.02,0.15,0.06S40.8,29,40.8,29.06C40.8,29.12,40.78,29.17,40.74,29.21z"
				/>
			<path class="st2" d="M41.12,30.45h-0.21v-0.39h0.21c0.03,0,0.05-0.01,0.07-0.03c0.02-0.02,0.03-0.05,0.03-0.08v-0.6h0.41v0.6
				c0,0.03,0.01,0.06,0.03,0.08c0.02,0.02,0.04,0.03,0.07,0.03h0.21v0.39h-0.21c-0.12,0-0.22-0.04-0.3-0.12
				C41.35,30.41,41.25,30.45,41.12,30.45z M41.35,29.21c-0.04,0.04-0.09,0.06-0.15,0.06s-0.11-0.02-0.15-0.06
				c-0.04-0.04-0.06-0.09-0.06-0.14c0-0.06,0.02-0.1,0.06-0.14c0.04-0.04,0.09-0.06,0.15-0.06s0.11,0.02,0.15,0.06
				c0.04,0.04,0.06,0.09,0.06,0.14C41.41,29.13,41.39,29.17,41.35,29.21z M41.8,29.21c-0.04,0.04-0.09,0.06-0.15,0.06
				c-0.06,0-0.11-0.02-0.15-0.06c-0.04-0.04-0.06-0.09-0.06-0.14s0.02-0.1,0.06-0.14c0.04-0.04,0.09-0.06,0.15-0.06
				c0.06,0,0.11,0.02,0.15,0.06c0.04,0.04,0.06,0.09,0.06,0.14C41.86,29.13,41.84,29.17,41.8,29.21z"/>
			<path class="st2" d="M41.97,30.45H41.9v-0.39h0.08c0.03,0,0.05-0.01,0.07-0.03c0.02-0.02,0.03-0.05,0.03-0.08v-1.21h0.41v1.21
				c0,0.03,0.01,0.06,0.03,0.08c0.02,0.02,0.04,0.03,0.07,0.03h0.07v0.39h-0.07c-0.12,0-0.22-0.04-0.3-0.12
				C42.2,30.41,42.1,30.45,41.97,30.45z"/>
			<path class="st2" d="M42.68,30.45h-0.07v-0.39h0.07c0.03,0,0.05-0.01,0.07-0.03c0.02-0.02,0.03-0.05,0.03-0.08v-1.21h0.41v1.21
				c0,0.14-0.05,0.26-0.14,0.36C42.94,30.4,42.82,30.45,42.68,30.45z"/>
			<path class="st2" d="M45.12,30.45h-1.13v-0.39h0.59V29.9c0-0.05-0.02-0.09-0.05-0.12c-0.03-0.03-0.07-0.05-0.11-0.05
				c-0.05,0-0.1,0.01-0.15,0.04l-0.16-0.35c0.09-0.06,0.2-0.09,0.31-0.09c0.16,0,0.29,0.05,0.4,0.16c0.11,0.11,0.17,0.24,0.17,0.4
				v0.15h0.13V30.45z"/>
			<path class="st2" d="M45.26,30.45h-0.19v-0.39h0.19c0.03,0,0.05-0.01,0.07-0.03c0.02-0.02,0.03-0.05,0.03-0.08v-0.6h0.41v0.6
				c0,0.14-0.05,0.26-0.15,0.36C45.53,30.4,45.41,30.45,45.26,30.45z M45.34,30.96c-0.06,0-0.11-0.02-0.15-0.06
				s-0.06-0.09-0.06-0.14s0.02-0.1,0.06-0.14c0.04-0.04,0.09-0.06,0.15-0.06s0.11,0.02,0.15,0.06c0.04,0.04,0.06,0.09,0.06,0.14
				c0,0.05-0.02,0.1-0.06,0.14C45.44,30.94,45.39,30.96,45.34,30.96z M45.8,30.96c-0.06,0-0.11-0.02-0.15-0.06
				c-0.04-0.04-0.06-0.09-0.06-0.14s0.02-0.1,0.06-0.14c0.04-0.04,0.09-0.06,0.15-0.06c0.06,0,0.11,0.02,0.15,0.06
				C45.98,30.65,46,30.7,46,30.76c0,0.05-0.02,0.1-0.06,0.14C45.9,30.94,45.85,30.96,45.8,30.96z"/>
			<path class="st2" d="M47.14,30.45h-1.13v-0.39h0.59V29.9c0-0.05-0.02-0.09-0.05-0.12c-0.03-0.03-0.07-0.05-0.11-0.05
				c-0.05,0-0.1,0.01-0.15,0.04l-0.16-0.35c0.09-0.06,0.2-0.09,0.31-0.09c0.16,0,0.29,0.05,0.4,0.16c0.11,0.11,0.17,0.24,0.17,0.4
				v0.15h0.13V30.45z"/>
			<path class="st2" d="M48.62,30.45h-1.53v-0.39h0.97v-0.05c0-0.09-0.03-0.15-0.08-0.2c-0.05-0.05-0.13-0.07-0.23-0.07h-0.51v-0.39
				h0.53c0.19,0,0.36,0.06,0.49,0.18c0.13,0.12,0.2,0.27,0.2,0.46v0.07h0.15L48.62,30.45z M47.84,30.99c-0.06,0-0.11-0.02-0.15-0.06
				s-0.06-0.09-0.06-0.15c0-0.06,0.02-0.11,0.06-0.15s0.09-0.06,0.15-0.06c0.06,0,0.11,0.02,0.15,0.06
				c0.04,0.04,0.06,0.09,0.06,0.15c0,0.06-0.02,0.11-0.06,0.15C47.95,30.97,47.9,30.99,47.84,30.99z"/>
			<path class="st2" d="M48.78,30.45h-0.21v-0.39h0.21c0.03,0,0.05-0.01,0.07-0.03c0.02-0.02,0.03-0.05,0.03-0.08v-0.6h0.41v0.6
				c0,0.03,0.01,0.06,0.03,0.08c0.02,0.02,0.04,0.03,0.07,0.03h0.21v0.39h-0.21c-0.12,0-0.22-0.04-0.3-0.12
				C49,30.41,48.9,30.45,48.78,30.45z M49,29.21c-0.04,0.04-0.09,0.06-0.15,0.06s-0.11-0.02-0.15-0.06
				c-0.04-0.04-0.06-0.09-0.06-0.14c0-0.06,0.02-0.1,0.06-0.14c0.04-0.04,0.09-0.06,0.15-0.06s0.11,0.02,0.15,0.06
				c0.04,0.04,0.06,0.09,0.06,0.14C49.06,29.13,49.04,29.17,49,29.21z M49.46,29.21c-0.04,0.04-0.09,0.06-0.15,0.06
				c-0.06,0-0.11-0.02-0.15-0.06c-0.04-0.04-0.06-0.09-0.06-0.14s0.02-0.1,0.06-0.14c0.04-0.04,0.09-0.06,0.15-0.06
				c0.06,0,0.11,0.02,0.15,0.06c0.04,0.04,0.06,0.09,0.06,0.14C49.52,29.13,49.5,29.17,49.46,29.21z"/>
			<path class="st2" d="M49.62,30.45h-0.07v-0.39h0.07c0.03,0,0.05-0.01,0.07-0.03c0.02-0.02,0.03-0.05,0.03-0.08v-1.21h0.41v1.21
				c0,0.14-0.05,0.26-0.14,0.36C49.88,30.4,49.76,30.45,49.62,30.45z"/>
			<path class="st2" d="M50.8,30.45H50.4v-1.72h0.41V30.45z"/>
			<path class="st2" d="M52.68,30.45h-0.35c-0.21,0-0.38-0.06-0.52-0.19c-0.13-0.13-0.2-0.28-0.2-0.47v-0.22h0.41v0.22
				c0,0.08,0.03,0.14,0.08,0.19s0.13,0.07,0.23,0.07h0.35c0.12,0,0.18-0.06,0.18-0.18v-0.52h0.41v0.52c0,0.17-0.05,0.31-0.16,0.42
				C52.99,30.39,52.85,30.45,52.68,30.45z M52.59,30.91c-0.04,0.04-0.09,0.06-0.15,0.06s-0.11-0.02-0.15-0.06
				c-0.04-0.04-0.06-0.09-0.06-0.15s0.02-0.11,0.06-0.15c0.04-0.04,0.09-0.06,0.15-0.06s0.11,0.02,0.15,0.06s0.06,0.09,0.06,0.15
				S52.63,30.86,52.59,30.91z"/>
			<path class="st2" d="M54.05,30.45H54c-0.15,0-0.27-0.05-0.36-0.14c-0.1-0.1-0.14-0.21-0.14-0.36v-1.21h0.41v1.21
				c0,0.03,0.01,0.06,0.03,0.08c0.02,0.02,0.04,0.03,0.07,0.03h0.06V30.45z"/>
			<path class="st2" d="M54.08,30.45h-0.07v-0.39h0.07c0.03,0,0.05-0.01,0.07-0.03c0.02-0.02,0.03-0.05,0.03-0.08v-0.6h0.41v0.6
				c0,0.03,0.01,0.06,0.03,0.08c0.02,0.02,0.04,0.03,0.07,0.03h0.07v0.39h-0.07c-0.12,0-0.22-0.04-0.3-0.12
				C54.3,30.41,54.2,30.45,54.08,30.45z M54.53,30.91c-0.04,0.04-0.09,0.06-0.15,0.06s-0.11-0.02-0.15-0.06s-0.06-0.09-0.06-0.15
				s0.02-0.11,0.06-0.15c0.04-0.04,0.09-0.06,0.15-0.06s0.11,0.02,0.15,0.06c0.04,0.04,0.06,0.09,0.06,0.15S54.57,30.87,54.53,30.91
				z"/>
			<path class="st2" d="M54.78,30.45H54.7v-0.39h0.08c0.03,0,0.05-0.01,0.07-0.03c0.02-0.02,0.03-0.05,0.03-0.08v-0.6h0.41v0.59
				c0,0.03,0.01,0.06,0.03,0.08s0.04,0.03,0.07,0.03c0.03,0,0.06-0.01,0.08-0.03s0.03-0.05,0.03-0.08v-0.59h0.41v0.59
				c0,0.03,0.01,0.06,0.03,0.08c0.02,0.02,0.04,0.03,0.08,0.03c0.03,0,0.06-0.01,0.07-0.03s0.03-0.05,0.03-0.08v-0.59h0.41v0.59
				c0,0.15-0.05,0.27-0.15,0.36c-0.1,0.1-0.22,0.14-0.36,0.14c-0.13,0-0.23-0.04-0.31-0.12c-0.08,0.08-0.18,0.12-0.31,0.12
				c-0.13,0-0.23-0.04-0.31-0.12C55.01,30.41,54.91,30.45,54.78,30.45z M55.59,29.21c-0.04,0.04-0.09,0.06-0.14,0.06
				c-0.06,0-0.1-0.02-0.14-0.06c-0.04-0.04-0.06-0.08-0.06-0.14c0-0.05,0.02-0.1,0.06-0.14c0.04-0.04,0.09-0.06,0.14-0.06
				c0.06,0,0.1,0.02,0.14,0.06c0.04,0.04,0.06,0.08,0.06,0.14C55.65,29.13,55.63,29.17,55.59,29.21z M55.68,28.9
				c-0.05,0-0.09-0.02-0.13-0.05c-0.04-0.03-0.05-0.08-0.05-0.13c0-0.05,0.02-0.09,0.05-0.13c0.04-0.03,0.08-0.05,0.13-0.05
				c0.05,0,0.1,0.02,0.13,0.05c0.04,0.03,0.05,0.08,0.05,0.13c0,0.05-0.02,0.09-0.05,0.13C55.77,28.89,55.73,28.9,55.68,28.9z
				 M56.05,29.21c-0.04,0.04-0.09,0.06-0.14,0.06c-0.06,0-0.1-0.02-0.14-0.06c-0.04-0.04-0.06-0.08-0.06-0.14
				c0-0.05,0.02-0.1,0.06-0.14c0.04-0.04,0.09-0.06,0.14-0.06c0.06,0,0.1,0.02,0.14,0.06c0.04,0.04,0.06,0.08,0.06,0.14
				C56.11,29.13,56.09,29.17,56.05,29.21z"/>
			<path class="st2" d="M57.86,30.45c-0.16,0-0.29-0.05-0.4-0.16s-0.17-0.24-0.17-0.39s0.06-0.28,0.17-0.39
				c0.11-0.11,0.24-0.16,0.4-0.16h0.56v0.6c0,0.03,0.01,0.06,0.03,0.08c0.02,0.02,0.04,0.03,0.07,0.03h0.08v0.39h-0.08
				c-0.13,0-0.24-0.04-0.31-0.13C58.11,30.4,57.99,30.45,57.86,30.45z M57.83,29.21c-0.04,0.04-0.09,0.06-0.15,0.06
				s-0.11-0.02-0.15-0.06c-0.04-0.04-0.06-0.09-0.06-0.14c0-0.06,0.02-0.1,0.06-0.14c0.04-0.04,0.09-0.06,0.15-0.06
				s0.11,0.02,0.15,0.06c0.04,0.04,0.06,0.09,0.06,0.14C57.89,29.13,57.87,29.17,57.83,29.21z M57.75,30.01
				c0.03,0.03,0.07,0.05,0.11,0.05c0.04,0,0.08-0.01,0.11-0.04c0.03-0.03,0.04-0.07,0.04-0.11v-0.16h-0.15
				c-0.04,0-0.08,0.02-0.11,0.05c-0.03,0.03-0.05,0.07-0.05,0.11S57.71,29.97,57.75,30.01z M58.29,29.21
				c-0.04,0.04-0.09,0.06-0.15,0.06c-0.06,0-0.11-0.02-0.15-0.06c-0.04-0.04-0.06-0.09-0.06-0.14s0.02-0.1,0.06-0.14
				c0.04-0.04,0.09-0.06,0.15-0.06c0.06,0,0.11,0.02,0.15,0.06c0.04,0.04,0.06,0.09,0.06,0.14C58.35,29.13,58.33,29.17,58.29,29.21z
				"/>
			<path class="st2" d="M59.24,30.45h-0.69v-0.39h0.17c-0.03-0.05-0.05-0.1-0.05-0.15c0-0.15,0.06-0.28,0.17-0.39
				c0.11-0.11,0.24-0.16,0.4-0.16s0.29,0.05,0.4,0.16c0.11,0.11,0.17,0.24,0.17,0.39v0.08c0,0.02,0.01,0.04,0.02,0.06
				c0.01,0.02,0.03,0.02,0.06,0.02h0.07v0.39h-0.07c-0.12,0-0.22-0.04-0.28-0.13C59.5,30.4,59.38,30.45,59.24,30.45z M59.13,30.01
				c0.03,0.03,0.07,0.05,0.11,0.05s0.08-0.02,0.11-0.05c0.03-0.03,0.05-0.07,0.05-0.11s-0.02-0.08-0.05-0.11
				c-0.03-0.03-0.07-0.05-0.11-0.05s-0.08,0.02-0.11,0.05c-0.03,0.03-0.05,0.07-0.05,0.11S59.1,29.97,59.13,30.01z"/>
			<path class="st2" d="M61.03,30.45h-1.12v-0.39h0.16v-1.32h0.41v0.79c0.16-0.12,0.32-0.17,0.49-0.17c0.17,0,0.3,0.05,0.41,0.16
				c0.11,0.11,0.16,0.25,0.16,0.42v0.03c0,0.06,0.03,0.09,0.08,0.09h0.07v0.39h-0.07c-0.11,0-0.21-0.04-0.28-0.12
				C61.25,30.41,61.15,30.45,61.03,30.45z M60.47,29.96v0.1h0.55c0.03,0,0.06-0.01,0.08-0.02c0.02-0.02,0.03-0.04,0.03-0.07v-0.02
				c0-0.06-0.02-0.11-0.05-0.14s-0.09-0.05-0.16-0.05c-0.06,0-0.14,0.02-0.22,0.06C60.62,29.84,60.54,29.89,60.47,29.96z
				 M60.96,29.21c-0.04,0.04-0.09,0.06-0.15,0.06s-0.11-0.02-0.15-0.06s-0.06-0.09-0.06-0.15c0-0.06,0.02-0.11,0.06-0.15
				s0.09-0.06,0.15-0.06s0.11,0.02,0.15,0.06c0.04,0.04,0.06,0.09,0.06,0.15C61.03,29.12,61,29.17,60.96,29.21z"/>
			<path class="st2" d="M61.71,30.45h-0.08v-0.39h0.08c0.03,0,0.05-0.01,0.07-0.03c0.02-0.02,0.03-0.05,0.03-0.08v-0.6h0.41v0.6
				c0,0.03,0.01,0.06,0.03,0.08c0.02,0.02,0.04,0.03,0.07,0.03h0.08v0.39h-0.08c-0.12,0-0.22-0.04-0.3-0.12
				C61.94,30.41,61.84,30.45,61.71,30.45z M62.17,29.21c-0.04,0.04-0.09,0.06-0.15,0.06s-0.11-0.02-0.15-0.06
				c-0.04-0.04-0.06-0.09-0.06-0.15c0-0.06,0.02-0.11,0.06-0.15c0.04-0.04,0.09-0.06,0.15-0.06s0.11,0.02,0.15,0.06
				c0.04,0.04,0.06,0.09,0.06,0.15C62.24,29.12,62.22,29.17,62.17,29.21z"/>
			<path class="st2" d="M63.04,30.45h-0.69v-0.39h0.17c-0.03-0.05-0.04-0.1-0.04-0.15c0-0.15,0.06-0.28,0.17-0.39
				c0.11-0.11,0.24-0.16,0.4-0.16c0.16,0,0.29,0.05,0.4,0.16c0.11,0.11,0.17,0.24,0.17,0.39s-0.05,0.28-0.17,0.39
				S63.2,30.45,63.04,30.45z M62.93,30.01c0.03,0.03,0.07,0.05,0.11,0.05s0.08-0.02,0.11-0.05c0.03-0.03,0.05-0.07,0.05-0.11
				s-0.02-0.08-0.05-0.11c-0.03-0.03-0.07-0.05-0.11-0.05s-0.08,0.02-0.11,0.05c-0.03,0.03-0.05,0.07-0.05,0.11
				S62.89,29.97,62.93,30.01z"/>
		</g>
		<g>
			<g>
				<path class="st1" d="M28.19,33.69h0.41c0.1,0,0.15,0,0.19,0.03c0.02,0.02,0.04,0.05,0.04,0.09c0,0.03-0.02,0.07-0.04,0.09
					c-0.04,0.03-0.09,0.03-0.19,0.03h-0.41v0.29c0,0.12,0,0.18-0.05,0.22c-0.03,0.03-0.08,0.05-0.14,0.05
					c-0.05,0-0.1-0.02-0.14-0.05c-0.05-0.04-0.05-0.11-0.05-0.23v-0.77c0-0.15,0-0.18,0.06-0.23c0.05-0.05,0.1-0.05,0.27-0.05h0.56
					c0.11,0,0.16,0,0.2,0.03c0.02,0.02,0.04,0.05,0.04,0.09c0,0.03-0.01,0.07-0.04,0.09c-0.04,0.03-0.09,0.03-0.2,0.03h-0.5V33.69z"
					/>
				<path class="st1" d="M29.84,33.15c0.54,0,0.77,0.29,0.77,0.68c0,0.38-0.23,0.68-0.76,0.68c-0.52,0-0.76-0.28-0.76-0.68
					C29.09,33.46,29.32,33.15,29.84,33.15z M29.58,34.13c0.04,0.04,0.12,0.11,0.26,0.11c0.14,0,0.25-0.06,0.31-0.15
					c0.05-0.08,0.06-0.19,0.06-0.27c0-0.07,0-0.41-0.37-0.41c-0.24,0-0.37,0.15-0.37,0.41C29.48,34,29.53,34.08,29.58,34.13z"/>
				<path class="st1" d="M31.6,34.14c-0.13-0.18-0.18-0.2-0.31-0.2h-0.05v0.28c0,0.12,0,0.18-0.05,0.22
					c-0.03,0.03-0.08,0.05-0.14,0.05c-0.05,0-0.11-0.02-0.14-0.05c-0.05-0.04-0.05-0.11-0.05-0.23v-0.77c0-0.15,0-0.18,0.06-0.23
					c0.05-0.05,0.1-0.05,0.27-0.05h0.39c0.1,0,0.24,0,0.35,0.04c0.18,0.06,0.25,0.21,0.25,0.33c0,0.11-0.06,0.22-0.15,0.28
					c-0.08,0.05-0.16,0.07-0.22,0.08c0.1,0.05,0.15,0.09,0.23,0.18c0.07,0.08,0.15,0.22,0.15,0.3c0,0.08-0.08,0.13-0.18,0.13
					c-0.13,0-0.18-0.07-0.28-0.21L31.6,34.14z M31.24,33.71h0.21c0.14,0,0.31,0,0.31-0.15c0-0.15-0.16-0.15-0.3-0.15h-0.22V33.71z"
					/>
				<path class="st1" d="M33.09,33.45c0-0.15,0-0.18,0.06-0.23c0.06-0.05,0.1-0.05,0.27-0.05h0.3c0.15,0,0.3,0.01,0.44,0.1
					c0.19,0.12,0.27,0.32,0.27,0.55c0,0.12-0.01,0.37-0.24,0.55c-0.11,0.08-0.28,0.12-0.45,0.12h-0.31c-0.18,0-0.24,0-0.3-0.08
					c-0.03-0.04-0.03-0.1-0.03-0.2V33.45z M33.48,34.22h0.17c0.18,0,0.38,0,0.38-0.39c0-0.39-0.21-0.4-0.43-0.4h-0.13V34.22z"/>
				<path class="st1" d="M35.07,33.67h0.54c0.1,0,0.15,0,0.19,0.03c0.02,0.02,0.04,0.05,0.04,0.09c0,0.03-0.02,0.07-0.04,0.09
					c-0.04,0.03-0.09,0.03-0.19,0.03h-0.54v0.31h0.61c0.11,0,0.16,0,0.2,0.04c0.02,0.02,0.05,0.05,0.05,0.09
					c0,0.04-0.02,0.07-0.05,0.1c-0.04,0.03-0.1,0.03-0.2,0.03H35c-0.18,0-0.21,0-0.27-0.05c-0.06-0.05-0.06-0.09-0.06-0.23v-0.75
					c0-0.15,0-0.18,0.06-0.23c0.06-0.05,0.1-0.05,0.27-0.05h0.65c0.1,0,0.16,0,0.2,0.03c0.02,0.02,0.05,0.05,0.05,0.09
					c0,0.04-0.02,0.07-0.04,0.09c-0.04,0.03-0.1,0.03-0.2,0.03h-0.59V33.67z"/>
				<path class="st1" d="M37.05,33.36c0.05-0.13,0.08-0.21,0.22-0.21c0.1,0,0.18,0.08,0.18,0.15c0,0.05-0.01,0.08-0.05,0.17
					l-0.3,0.72c-0.07,0.17-0.1,0.23-0.16,0.27c-0.05,0.03-0.11,0.05-0.17,0.05c-0.08,0-0.17-0.03-0.21-0.08
					c-0.04-0.05-0.07-0.09-0.13-0.24l-0.3-0.71c-0.04-0.09-0.06-0.13-0.06-0.17c0-0.07,0.07-0.15,0.19-0.15
					c0.14,0,0.17,0.08,0.22,0.22l0.29,0.76L37.05,33.36z"/>
				<path class="st1" d="M38.06,33.67h0.54c0.1,0,0.15,0,0.19,0.03c0.02,0.02,0.04,0.05,0.04,0.09c0,0.03-0.02,0.07-0.04,0.09
					c-0.04,0.03-0.09,0.03-0.19,0.03h-0.54v0.31h0.61c0.11,0,0.16,0,0.2,0.04c0.02,0.02,0.05,0.05,0.05,0.09
					c0,0.04-0.02,0.07-0.05,0.1c-0.04,0.03-0.1,0.03-0.2,0.03H38c-0.18,0-0.21,0-0.27-0.05c-0.06-0.05-0.06-0.09-0.06-0.23v-0.75
					c0-0.15,0-0.18,0.06-0.23c0.06-0.05,0.1-0.05,0.27-0.05h0.65c0.1,0,0.16,0,0.2,0.03c0.02,0.02,0.05,0.05,0.05,0.09
					c0,0.04-0.02,0.07-0.04,0.09c-0.04,0.03-0.1,0.03-0.2,0.03h-0.59V33.67z"/>
				<path class="st1" d="M40.04,34.21c0.11,0,0.17,0,0.21,0.03c0.02,0.02,0.05,0.05,0.05,0.1c0,0.04-0.02,0.07-0.05,0.1
					c-0.04,0.04-0.1,0.04-0.21,0.04h-0.57c-0.18,0-0.21,0-0.27-0.05c-0.06-0.05-0.06-0.09-0.06-0.23v-0.77c0-0.12,0-0.18,0.05-0.22
					c0.03-0.02,0.08-0.05,0.14-0.05c0.05,0,0.11,0.02,0.14,0.05c0.05,0.05,0.05,0.11,0.05,0.23v0.78H40.04z"/>
				<path class="st1" d="M41.18,33.15c0.54,0,0.77,0.29,0.77,0.68c0,0.38-0.23,0.68-0.76,0.68c-0.52,0-0.76-0.28-0.76-0.68
					C40.42,33.46,40.65,33.15,41.18,33.15z M40.92,34.13c0.04,0.04,0.12,0.11,0.26,0.11c0.14,0,0.25-0.06,0.31-0.15
					c0.05-0.08,0.06-0.19,0.06-0.27c0-0.07,0-0.41-0.37-0.41c-0.24,0-0.37,0.15-0.37,0.41C40.82,34,40.87,34.08,40.92,34.13z"/>
				<path class="st1" d="M42.58,34.22c0,0.12,0,0.18-0.05,0.22c-0.03,0.03-0.08,0.05-0.14,0.05c-0.05,0-0.11-0.02-0.14-0.05
					c-0.05-0.04-0.05-0.11-0.05-0.23v-0.77c0-0.15,0-0.18,0.06-0.23c0.05-0.05,0.1-0.05,0.27-0.05h0.3c0.21,0,0.35,0.01,0.46,0.1
					c0.07,0.05,0.14,0.14,0.14,0.3c0,0.06-0.01,0.26-0.23,0.36c-0.12,0.06-0.29,0.05-0.38,0.05h-0.23V34.22z M42.58,33.74h0.14
					c0.05,0,0.15,0,0.21-0.02s0.1-0.08,0.1-0.14c0-0.06-0.03-0.11-0.09-0.14c-0.03-0.02-0.08-0.03-0.22-0.03h-0.14V33.74z"/>
				<path class="st1" d="M44.63,33.4c0.07-0.22,0.07-0.24,0.34-0.24c0.11,0,0.18,0,0.24,0.08c0.03,0.04,0.03,0.09,0.03,0.2v0.81
					c0,0.1,0,0.16-0.04,0.19c-0.03,0.02-0.07,0.05-0.12,0.05c-0.04,0-0.09-0.02-0.12-0.04c-0.04-0.04-0.04-0.09-0.04-0.2v-0.8
					l-0.24,0.8c-0.03,0.11-0.05,0.17-0.1,0.2c-0.03,0.02-0.07,0.04-0.13,0.04c-0.04,0-0.09-0.01-0.13-0.04
					c-0.05-0.03-0.06-0.09-0.1-0.2l-0.24-0.8v0.8c0,0.1,0,0.16-0.04,0.19c-0.03,0.02-0.07,0.05-0.12,0.05
					c-0.04,0-0.09-0.02-0.12-0.04c-0.04-0.04-0.04-0.09-0.04-0.2v-0.81c0-0.15,0-0.18,0.06-0.23c0.06-0.05,0.11-0.05,0.21-0.05
					c0.16,0,0.21,0,0.27,0.06c0.03,0.03,0.04,0.06,0.07,0.18l0.19,0.61L44.63,33.4z"/>
				<path class="st1" d="M45.93,33.67h0.54c0.1,0,0.15,0,0.19,0.03c0.02,0.02,0.04,0.05,0.04,0.09c0,0.03-0.02,0.07-0.04,0.09
					c-0.04,0.03-0.09,0.03-0.19,0.03h-0.54v0.31h0.61c0.11,0,0.16,0,0.2,0.04c0.02,0.02,0.05,0.05,0.05,0.09
					c0,0.04-0.02,0.07-0.05,0.1c-0.04,0.03-0.1,0.03-0.2,0.03h-0.67c-0.18,0-0.21,0-0.27-0.05c-0.06-0.05-0.06-0.09-0.06-0.23v-0.75
					c0-0.15,0-0.18,0.06-0.23c0.06-0.05,0.1-0.05,0.27-0.05h0.65c0.1,0,0.16,0,0.2,0.03c0.02,0.02,0.05,0.05,0.05,0.09
					c0,0.04-0.02,0.07-0.04,0.09c-0.04,0.03-0.1,0.03-0.2,0.03h-0.59V33.67z"/>
				<path class="st1" d="M47.99,33.41c0-0.11,0-0.17,0.05-0.21c0.03-0.02,0.07-0.05,0.13-0.05c0.05,0,0.1,0.02,0.14,0.05
					c0.05,0.04,0.05,0.1,0.05,0.21v0.76c0,0.18,0,0.22-0.08,0.29c-0.03,0.02-0.08,0.05-0.16,0.05c-0.13,0-0.16-0.05-0.28-0.21
					l-0.45-0.6v0.55c0,0.11,0,0.17-0.05,0.21c-0.03,0.02-0.07,0.05-0.13,0.05c-0.05,0-0.1-0.02-0.13-0.05
					c-0.05-0.04-0.05-0.1-0.05-0.21v-0.76c0-0.17,0-0.22,0.08-0.28c0.03-0.02,0.07-0.05,0.15-0.05c0.12,0,0.16,0.05,0.27,0.2
					l0.46,0.62V33.41z"/>
				<path class="st1" d="M48.79,33.44c-0.11,0-0.17,0-0.21-0.04c-0.02-0.02-0.05-0.05-0.05-0.1c0-0.04,0.02-0.07,0.05-0.1
					c0.04-0.04,0.1-0.04,0.21-0.04h0.84c0.11,0,0.17,0,0.21,0.04c0.02,0.02,0.05,0.05,0.05,0.1c0,0.04-0.02,0.08-0.05,0.1
					c-0.04,0.04-0.1,0.04-0.21,0.04h-0.23v0.78c0,0.12,0,0.18-0.05,0.22c-0.03,0.02-0.07,0.05-0.14,0.05c-0.05,0-0.1-0.02-0.14-0.05
					c-0.05-0.04-0.05-0.11-0.05-0.23v-0.78H48.79z"/>
				<path class="st1" d="M51.07,34.22l-0.03,0.07c-0.05,0.13-0.08,0.21-0.22,0.21c-0.1,0-0.18-0.08-0.18-0.15
					c0-0.05,0.01-0.08,0.05-0.17l0.32-0.72c0.07-0.17,0.1-0.23,0.17-0.27c0.04-0.03,0.1-0.05,0.17-0.05c0.06,0,0.12,0.02,0.17,0.05
					c0.07,0.04,0.1,0.11,0.17,0.27l0.32,0.71c0.04,0.09,0.06,0.13,0.06,0.17c0,0.07-0.07,0.15-0.19,0.15
					c-0.13,0-0.17-0.08-0.22-0.21l-0.03-0.06H51.07z M51.55,33.97l-0.19-0.48l-0.19,0.48H51.55z"/>
				<path class="st1" d="M53.29,33.41c0-0.11,0-0.17,0.05-0.21c0.03-0.02,0.07-0.05,0.13-0.05c0.05,0,0.1,0.02,0.14,0.05
					c0.05,0.04,0.05,0.1,0.05,0.21v0.76c0,0.18,0,0.22-0.08,0.29c-0.03,0.02-0.08,0.05-0.16,0.05c-0.13,0-0.16-0.05-0.28-0.21
					l-0.45-0.6v0.55c0,0.11,0,0.17-0.05,0.21c-0.03,0.02-0.07,0.05-0.13,0.05c-0.05,0-0.1-0.02-0.13-0.05
					c-0.05-0.04-0.05-0.1-0.05-0.21v-0.76c0-0.17,0-0.22,0.08-0.28c0.03-0.02,0.07-0.05,0.15-0.05c0.12,0,0.16,0.05,0.27,0.2
					l0.46,0.62V33.41z"/>
				<path class="st1" d="M53.97,33.45c0-0.15,0-0.18,0.06-0.23c0.06-0.05,0.1-0.05,0.27-0.05h0.3c0.15,0,0.3,0.01,0.44,0.1
					c0.19,0.12,0.27,0.32,0.27,0.55c0,0.12-0.01,0.37-0.24,0.55c-0.11,0.08-0.28,0.12-0.45,0.12h-0.31c-0.18,0-0.24,0-0.3-0.08
					c-0.03-0.04-0.03-0.1-0.03-0.2V33.45z M54.35,34.22h0.17c0.18,0,0.38,0,0.38-0.39c0-0.39-0.21-0.4-0.43-0.4h-0.13V34.22z"/>
				<path class="st1" d="M56.6,34.22c0,0.12,0,0.18-0.05,0.22c-0.03,0.03-0.08,0.05-0.14,0.05c-0.05,0-0.11-0.02-0.14-0.05
					c-0.05-0.04-0.05-0.11-0.05-0.23v-0.77c0-0.15,0-0.18,0.06-0.23c0.05-0.05,0.1-0.05,0.27-0.05h0.3c0.21,0,0.35,0.01,0.46,0.1
					c0.07,0.05,0.14,0.14,0.14,0.3c0,0.06-0.01,0.26-0.23,0.36c-0.12,0.06-0.29,0.05-0.38,0.05H56.6V34.22z M56.6,33.74h0.14
					c0.05,0,0.15,0,0.21-0.02s0.1-0.08,0.1-0.14c0-0.06-0.03-0.11-0.09-0.14c-0.03-0.02-0.08-0.03-0.22-0.03H56.6V33.74z"/>
				<path class="st1" d="M58.07,33.67h0.54c0.1,0,0.15,0,0.19,0.03c0.02,0.02,0.04,0.05,0.04,0.09c0,0.03-0.02,0.07-0.04,0.09
					c-0.04,0.03-0.09,0.03-0.19,0.03h-0.54v0.31h0.61c0.11,0,0.16,0,0.2,0.04c0.02,0.02,0.05,0.05,0.05,0.09
					c0,0.04-0.02,0.07-0.05,0.1c-0.04,0.03-0.1,0.03-0.2,0.03h-0.67c-0.18,0-0.21,0-0.27-0.05c-0.06-0.05-0.06-0.09-0.06-0.23v-0.75
					c0-0.15,0-0.18,0.06-0.23c0.06-0.05,0.1-0.05,0.27-0.05h0.65c0.1,0,0.16,0,0.2,0.03c0.02,0.02,0.05,0.05,0.05,0.09
					c0,0.04-0.02,0.07-0.04,0.09c-0.04,0.03-0.1,0.03-0.2,0.03h-0.59V33.67z"/>
				<path class="st1" d="M59.5,34.22l-0.03,0.07c-0.05,0.13-0.08,0.21-0.22,0.21c-0.1,0-0.18-0.08-0.18-0.15
					c0-0.05,0.01-0.08,0.05-0.17l0.32-0.72c0.07-0.17,0.1-0.23,0.17-0.27c0.04-0.03,0.1-0.05,0.17-0.05c0.06,0,0.12,0.02,0.17,0.05
					c0.07,0.04,0.1,0.11,0.17,0.27l0.32,0.71c0.04,0.09,0.06,0.13,0.06,0.17c0,0.07-0.07,0.15-0.19,0.15
					c-0.13,0-0.17-0.08-0.22-0.21l-0.03-0.06H59.5z M59.98,33.97l-0.19-0.48l-0.19,0.48H59.98z"/>
				<path class="st1" d="M61.17,34.15c0.05,0.06,0.15,0.09,0.25,0.09c0.21,0,0.27-0.12,0.31-0.21c0.02-0.04,0.05-0.12,0.17-0.12
					c0.09,0,0.17,0.06,0.17,0.15c0,0.11-0.08,0.24-0.18,0.31c-0.1,0.08-0.22,0.13-0.45,0.13c-0.25,0-0.42-0.06-0.54-0.18
					c-0.17-0.16-0.2-0.35-0.2-0.49c0-0.42,0.29-0.68,0.73-0.68c0.49,0,0.65,0.27,0.65,0.41c0,0.07-0.07,0.15-0.17,0.15
					c-0.11,0-0.15-0.07-0.18-0.13c-0.06-0.1-0.15-0.17-0.3-0.17c-0.34,0-0.34,0.35-0.34,0.42C61.08,34.01,61.12,34.09,61.17,34.15z"
					/>
				<path class="st1" d="M62.72,33.67h0.54c0.1,0,0.15,0,0.19,0.03c0.02,0.02,0.04,0.05,0.04,0.09c0,0.03-0.02,0.07-0.04,0.09
					c-0.04,0.03-0.09,0.03-0.19,0.03h-0.54v0.31h0.61c0.11,0,0.16,0,0.2,0.04c0.02,0.02,0.05,0.05,0.05,0.09
					c0,0.04-0.02,0.07-0.05,0.1c-0.04,0.03-0.1,0.03-0.2,0.03h-0.67c-0.18,0-0.21,0-0.27-0.05c-0.06-0.05-0.06-0.09-0.06-0.23v-0.75
					c0-0.15,0-0.18,0.06-0.23c0.05-0.05,0.1-0.05,0.27-0.05h0.65c0.1,0,0.16,0,0.2,0.03c0.02,0.02,0.05,0.05,0.05,0.09
					c0,0.04-0.02,0.07-0.04,0.09c-0.04,0.03-0.09,0.03-0.2,0.03h-0.59V33.67z"/>
			</g>
		</g>
	</g>
	<g id="O_1_" class="st16">
		<linearGradient id="SVGID_13_" gradientUnits="userSpaceOnUse" x1="52.9617" y1="12.8063" x2="48.9042" y2="22.5443">
			<stop  offset="0" style="stop-color:#71BCDC"/>
			<stop  offset="1" style="stop-color:#176A86"/>
		</linearGradient>
		<path class="st17" d="M48.68,22.76l-1.25,1.64c-1.09-2.44-1.16-5.52-0.61-7.84c0.37-1.58,1.01-3.3,2.13-4.52
			c1.14-1.25,2.72-2.07,4.5-2.07c0.16,0,0.31,0.01,0.47,0.02c0.53,0.04,1.19,0.18,1.67,0.41c0.47,0.23,0.86,0.51,1.24,0.86
			c0.21,0.19,0.39,0.41,0.57,0.62c0.09,0.11,0.17,0.22,0.26,0.33c0.07,0.09,0.16,0.18,0.22,0.28c0,0,0.01,0.01,0.01,0.01l-0.87,1.49
			l-1.85,0.06c-0.18-0.19-0.28-0.27-0.5-0.41c-2.51-1.52-3.88,0.9-4.47,3.08c-0.47,1.74-0.46,3.62,0.14,5.32
			c0.06,0.18,0.19,0.6,0.38,0.94L48.68,22.76z"/>
		<linearGradient id="SVGID_14_" gradientUnits="userSpaceOnUse" x1="60.8034" y1="16.0737" x2="56.7458" y2="25.8117">
			<stop  offset="0" style="stop-color:#71BCDC"/>
			<stop  offset="1" style="stop-color:#176A86"/>
		</linearGradient>
		<path class="st18" d="M64.1,9.97c-2.01,1.93,0.94,8.1-3.55,7.53c0.09-1.03,0.18-1.93,0.26-2.84l-0.01,0
			c-0.25,1.16-0.41,4.35-1.32,6.24c0,0,0.02-3.4,0.02-3.4c0.37-0.27,0.34-1.19,0.25-1.6c-0.1-0.45-0.21-0.91-0.23-1.37
			c-0.04-0.63,0.07-0.97,0.23-1.42c0.18-0.53,0.51-0.99,0.92-1.39C61.57,10.86,62.92,10.41,64.1,9.97z"/>
		<linearGradient id="SVGID_15_" gradientUnits="userSpaceOnUse" x1="58.442" y1="15.0898" x2="54.3845" y2="24.8278">
			<stop  offset="0" style="stop-color:#71BCDC"/>
			<stop  offset="1" style="stop-color:#176A86"/>
		</linearGradient>
		<path class="st19" d="M59.32,15.18c-0.32-0.85-0.69-1.74-1.23-2.49c-0.26,0.49-0.59,1.04-0.85,1.53c-0.6,0.03-1.33,0.05-1.92,0.08
			c0.8,1.05,1.26,2.29,1.52,3.55c0.12,0.61,0.19,1.23,0.14,1.85c-0.07,0.86-0.19,1.77-0.69,2.5c-0.49,0.71-1.31,1.29-2.15,1.59
			c-0.42,0.15-0.86,0.23-1.3,0.23c-0.51,0-1.01-0.18-1.48-0.35c0.28,0.22,0.56,0.47,0.86,0.65c1.64,0.97,3.82,0.65,5.26-0.5
			c1.33-1.06,2.16-2.7,2.32-4.34c0.07-0.7,0.15-1.42,0.05-2.12C59.76,16.62,59.59,15.89,59.32,15.18z"/>
		<linearGradient id="SVGID_16_" gradientUnits="userSpaceOnUse" x1="57.3032" y1="14.6153" x2="53.2457" y2="24.3533">
			<stop  offset="0" style="stop-color:#71BCDC"/>
			<stop  offset="1" style="stop-color:#176A86"/>
		</linearGradient>
		<path class="st20" d="M52.5,28.04c-2.38-0.43-3.63-1.4-4.93-3.36l1.18-1.59l2.12,0.2c0.77,1.18,1.95,1.82,3.42,1.93
			c2.38,0.17,4.41-1.73,5.35-3.85c-0.52,3.36-2.34,6.81-6.97,6.69C52.68,28.05,52.56,28.05,52.5,28.04z"/>
	</g>
	<g id="Y_1_" class="st16">
		<linearGradient id="SVGID_17_" gradientUnits="userSpaceOnUse" x1="49.9353" y1="2.2882" x2="49.9353" y2="8.6286">
			<stop  offset="0" style="stop-color:#ECA350"/>
			<stop  offset="1" style="stop-color:#EB6809"/>
		</linearGradient>
		<path class="st21" d="M45.86,23.17c-0.32-0.78-0.67-1.55-0.87-2.37c-0.15-0.61-0.36-1.23-0.45-1.86c-0.09-0.63-0.24-1.26-0.27-1.9
			c-0.03-0.63-0.02-1.26,0.02-1.89c0.3-4.32,2.54-8.62,6.37-10.76c1.43-0.8,3.34-1.1,4.97-1.08c-0.55,0.86-1.48,2.42-2.16,3.18
			c-1.27,1.42-1.99,1.87-3.37,3.12c-1.39,1.26-2.58,2.66-3.3,4.39c-0.66,1.59-0.91,3.32-0.9,5.04c0,0.63-0.04,1.26,0.03,1.89
			c0.07,0.63,0.17,1.26,0.29,1.88c0.14,0.72,0.35,1.41,0.51,2.13"/>
		
			<linearGradient id="SVGID_18_" gradientUnits="userSpaceOnUse" x1="45.8148" y1="121.2" x2="45.8148" y2="126.8678" gradientTransform="matrix(0.9995 0.0319 -0.0333 1.043 -1.5928 -125.3729)">
			<stop  offset="0" style="stop-color:#ECA350"/>
			<stop  offset="1" style="stop-color:#EB6809"/>
		</linearGradient>
		<path class="st22" d="M35.56,3.51c6.85-1.58,9.42,6.74,8.73,10.9c-0.37-1.6-1.23-2.91-2.28-4.16c-1.11-1.32-1.54-1.55-4.12-4.1"/>
		<linearGradient id="SVGID_19_" gradientUnits="userSpaceOnUse" x1="45.5688" y1="1.9701" x2="45.5688" y2="8.2474">
			<stop  offset="0" style="stop-color:#ECA350"/>
			<stop  offset="1" style="stop-color:#EB6809"/>
		</linearGradient>
		<path class="st23" d="M45.58,0.06c3.46,0.21,3.33,4.82,0.11,5.05C42.04,5.11,42.2,0.15,45.58,0.06z"/>
	</g>
	<g id="R_1_" class="st16">
		<g>
			<linearGradient id="SVGID_20_" gradientUnits="userSpaceOnUse" x1="38.8675" y1="15.1059" x2="33.3509" y2="26.7519">
				<stop  offset="0" style="stop-color:#71BCDC"/>
				<stop  offset="1" style="stop-color:#176A86"/>
			</linearGradient>
			<path class="st24" d="M34.31,27.99c0.19,0.06,0.37,0.05,0.57,0c0-3.18,0-5.75,0-7.44c-0.17-0.1-0.37-0.18-0.57-0.28
				C34.31,22.05,34.31,24.73,34.31,27.99z"/>
			<linearGradient id="SVGID_21_" gradientUnits="userSpaceOnUse" x1="37.3559" y1="14.5265" x2="31.9355" y2="25.9697">
				<stop  offset="0" style="stop-color:#71BCDC"/>
				<stop  offset="1" style="stop-color:#176A86"/>
			</linearGradient>
			<path class="st25" d="M31.87,25.94c0.08,2.58,1.95,2.07,2.28,2.08c0-3.3,0-6.03,0-7.82c-0.68-0.33-1.5-0.64-2.27-0.8
				C31.87,20.86,31.87,22.99,31.87,25.94z"/>
		</g>
		<linearGradient id="SVGID_22_" gradientUnits="userSpaceOnUse" x1="34.3653" y1="13.0672" x2="29.077" y2="24.2314">
			<stop  offset="0" style="stop-color:#71BCDC"/>
			<stop  offset="1" style="stop-color:#176A86"/>
		</linearGradient>
		<path class="st26" d="M34.14,16.56v-4.28c0.06,0,0.11,0,0.17,0c0,1.43,0,2.85,0,4.28c0.18,0.01,0.37,0.01,0.55,0.02
			c0.01-1.55,0.08-3.22-0.04-4.68c-3.54,1.04-2.96,1.51-2.95,4.75C32.58,16.52,33.34,16.53,34.14,16.56z"/>
		<linearGradient id="SVGID_23_" gradientUnits="userSpaceOnUse" x1="41.3544" y1="16.1164" x2="35.8825" y2="27.6682">
			<stop  offset="0" style="stop-color:#71BCDC"/>
			<stop  offset="1" style="stop-color:#176A86"/>
		</linearGradient>
		<path class="st27" d="M46.99,27.01c-6.81,0.41-2.87-6.91-10.11-7.47c2.67-0.87,5.56-2.63,6.08-5.56c-0.01,0-0.01,0-0.02-0.01
			c-1.17,2.18-3.07,3.18-5.15,3.75c11.16-4.38,1.55-10.73-4.72-6.21c0.81-0.78,1.82-1.3,2.97-1.47c0-0.03,0-0.02,0-0.04
			c-2.04-0.06-4.44,1.24-4.54,3.39c0,0,0,0,0,0c-0.01,0.18,0,0.37,0.02,0.56c0.48-2.19,4.93-2.75,7.29-2.22
			c0.41,0.09,0.8,0.25,1.15,0.48c1.37,0.91,1.23,2.24-0.2,3.55c-1.21,1.11-3.02,1.12-4.57,1.08c-0.21-0.01-0.41-0.01-0.61-0.02
			c-0.06,0-0.12,0-0.19-0.01c-0.11,0-0.22-0.01-0.33-0.01c-0.33-0.01-0.65-0.01-0.97,0c-0.42,0.01-0.83,0.04-1.21,0.12l0,0l0,0
			c0,0-0.59,0.16-0.65,0.18c-0.21,0.08-0.4,0.17-0.59,0.28c-0.36,0.21-0.67,0.49-0.93,0.8c-0.5,0.6-0.99,1.36-1.03,2.13
			c0.22-0.55,0.69-0.92,1.3-1.08c0.31-0.08,0.64-0.11,0.97-0.11c0.08,0,0.93,0.03,0.93,0.09c0.43,0.08,0.87,0.2,1.3,0.34
			c0.32,0.11,0.63,0.22,0.93,0.35c0.1,0.04,0.2,0.08,0.29,0.13c0.06,0.03,0.12,0.06,0.18,0.08v0c0.23,0.11,0.44,0.22,0.63,0.32
			c0.38,0.21,0.67,0.41,0.85,0.57c1.6,1.75,2.96,9.9,11.59,5.91C47.62,26.91,47.2,27,46.99,27.01z M37.96,21.87
			c-0.53-0.59-1.29-1.15-2.14-1.64c0,0,0,0,0,0c-0.08-0.04,0.04,0.01-0.38-0.21c0-0.01,0-0.01,0.01-0.02
			c2.97,0.89,3.62,3.08,5.06,4.92L37.96,21.87z M41.08,25.63l-0.14-0.15c0.19,0.19,0.39,0.37,0.61,0.54
			C41.39,25.9,41.23,25.77,41.08,25.63z"/>
		<linearGradient id="SVGID_24_" gradientUnits="userSpaceOnUse" x1="32.1117" y1="11.8864" x2="26.6148" y2="23.4911">
			<stop  offset="0" style="stop-color:#71BCDC"/>
			<stop  offset="1" style="stop-color:#176A86"/>
		</linearGradient>
		<path class="st28" d="M31.64,15.48c-1.04-1.83-0.43-3.79,1.46-5.25C30.65,10.58,29.55,14.05,31.64,15.48z"/>
	</g>
</g>
</svg>
